<?xml version="1.0" encoding="UTF-8" standalone="no"?>
<!DOCTYPE svg PUBLIC "-//W3C//DTD SVG 1.1//EN" "http://www.w3.org/Graphics/SVG/1.1/DTD/svg11.dtd">
<svg version="1.1" xmlns="http://www.w3.org/2000/svg" xmlns:xlink="http://www.w3.org/1999/xlink" preserveAspectRatio="xMidYMid meet" viewBox="210.42230804418728 52.21167883211706 203.99999999999966 203.99999999999977" width="200" height="200"><defs><path d="M211.42 153.21C211.42 98.02 256.23 53.21 311.42 53.21C366.61 53.21 411.42 98.02 411.42 153.21C411.42 208.4 366.61 253.21 311.42 253.21C256.23 253.21 211.42 208.4 211.42 153.21Z" id="dP8XGnQQz"></path><path d="M299.24 103.61L360.88 103.61L360.88 195.74L299.24 195.74L299.24 103.61Z" id="d4PJBxgA3e"></path><path d="M267.45 136.7L299.24 136.7L299.24 195.74L267.45 195.74L267.45 136.7Z" id="c455mXh9bF"></path><path d="M314.48 173.92L346.27 173.92L346.27 200.85L314.48 200.85L314.48 173.92Z" id="b3fz5sroBc"></path><path d="M349.2 119.74L312.48 119.74" id="b1sGNO8l24"></path><path d="M349.2 129.74L312.48 129.74" id="a2doTRmq9E"></path><path d="M349.2 139.74L312.48 139.74" id="c4Q1xneOl"></path><path d="M349.2 149.67L312.48 149.67" id="bfJFgw6cT"></path><path d="M292.77 149.67L272.85 149.67" id="a87oeNe8oS"></path><path d="M292.77 159.67L272.85 159.67" id="cEWYBFdd9"></path><path d="M292.77 169.67L272.85 169.67" id="a6oP9cwE7S"></path><path d="M292.77 179.6L272.85 179.6" id="e2PVJz8mCy"></path><path d="M258.87 193.22L369.42 193.22L369.42 202.82L258.87 202.82L258.87 193.22Z" id="aD2jq4SMF"></path></defs><g><g><use xlink:href="#dP8XGnQQz" opacity="1" fill="#ffbb0b" fill-opacity="1"></use></g><g><use xlink:href="#d4PJBxgA3e" opacity="1" fill="#000000" fill-opacity="1"></use></g><g><use xlink:href="#c455mXh9bF" opacity="1" fill="#000000" fill-opacity="1"></use></g><g><use xlink:href="#b3fz5sroBc" opacity="1" fill="#ffbb0b" fill-opacity="1"></use></g><g><g><use xlink:href="#b1sGNO8l24" opacity="1" fill-opacity="0" stroke="#ffbb0b" stroke-width="3" stroke-opacity="1"></use></g></g><g><g><use xlink:href="#a2doTRmq9E" opacity="1" fill-opacity="0" stroke="#ffbb0b" stroke-width="3" stroke-opacity="1"></use></g></g><g><g><use xlink:href="#c4Q1xneOl" opacity="1" fill-opacity="0" stroke="#ffbb0b" stroke-width="3" stroke-opacity="1"></use></g></g><g><g><use xlink:href="#bfJFgw6cT" opacity="1" fill-opacity="0" stroke="#ffbb0b" stroke-width="3" stroke-opacity="1"></use></g></g><g><g><use xlink:href="#a87oeNe8oS" opacity="1" fill-opacity="0" stroke="#ffbb0b" stroke-width="3" stroke-opacity="1"></use></g></g><g><g><use xlink:href="#cEWYBFdd9" opacity="1" fill-opacity="0" stroke="#ffbb0b" stroke-width="3" stroke-opacity="1"></use></g></g><g><g><use xlink:href="#a6oP9cwE7S" opacity="1" fill-opacity="0" stroke="#ffbb0b" stroke-width="3" stroke-opacity="1"></use></g></g><g><g><use xlink:href="#e2PVJz8mCy" opacity="1" fill-opacity="0" stroke="#ffbb0b" stroke-width="3" stroke-opacity="1"></use></g></g><g><use xlink:href="#aD2jq4SMF" opacity="1" fill="#000000" fill-opacity="1"></use></g></g></svg>