<?xml version="1.0" encoding="UTF-8" standalone="no"?>
<!DOCTYPE svg PUBLIC "-//W3C//DTD SVG 1.1//EN" "http://www.w3.org/Graphics/SVG/1.1/DTD/svg11.dtd">
<svg version="1.1" xmlns="http://www.w3.org/2000/svg" xmlns:xlink="http://www.w3.org/1999/xlink" preserveAspectRatio="xMidYMid meet" viewBox="210.42230804418728 52.21167883211706 203.99999999999966 203.99999999999977" width="200" height="200"><defs><path d="M211.42 153.21C211.42 98.02 256.23 53.21 311.42 53.21C366.61 53.21 411.42 98.02 411.42 153.21C411.42 208.4 366.61 253.21 311.42 253.21C256.23 253.21 211.42 208.4 211.42 153.21Z" id="a4FtgBqArd"></path><path d="M365.47 113.07C371 113.07 375.47 117.54 375.47 123.07C375.47 138 375.47 172.8 375.47 187.74C375.47 193.26 371 197.74 365.47 197.74C342.51 197.74 283.62 197.74 260.66 197.74C255.13 197.74 250.66 193.26 250.66 187.74C250.66 172.8 250.66 138 250.66 123.07C250.66 117.54 255.13 113.07 260.66 113.07C283.62 113.07 342.51 113.07 365.47 113.07Z" id="o2csuLyWpR"></path><path d="M319.77 167.63L319.42 167.94L319.06 168.23L318.68 168.51L318.3 168.78L317.92 169.02L317.52 169.25L317.12 169.46L316.71 169.65L316.3 169.83L315.88 169.99L315.46 170.13L315.03 170.26L314.6 170.37L314.16 170.46L313.73 170.54L313.29 170.6L312.84 170.64L312.4 170.67L311.96 170.67L311.52 170.67L311.08 170.64L310.63 170.6L310.2 170.54L309.76 170.46L309.32 170.37L308.89 170.26L308.46 170.13L308.04 169.99L307.62 169.83L307.21 169.65L306.8 169.46L306.4 169.25L306 169.02L305.62 168.77L305.24 168.51L304.87 168.23L304.5 167.94L304.15 167.63L303.81 167.3L246.74 110.23L246.41 109.88L246.1 109.53L245.8 109.17L245.53 108.8L245.26 108.42L245.02 108.03L244.79 107.63L244.58 107.23L244.39 106.83L244.21 106.41L244.05 105.99L243.9 105.57L243.78 105.14L243.75 105.04L382.38 105.04L320.11 167.3L319.77 167.63Z" id="b5cvt3xl9"></path><path d="M295.91 159.78L250.66 197.74" id="cpZlJ9ZLZ"></path><path d="M327.81 158.1L373.07 196.06" id="a6r0vsWxIA"></path></defs><g><g><use xlink:href="#a4FtgBqArd" opacity="1" fill="#ffbb0b" fill-opacity="1"></use></g><g><use xlink:href="#o2csuLyWpR" opacity="1" fill="#000000" fill-opacity="1"></use></g><g><g><use xlink:href="#b5cvt3xl9" opacity="1" fill-opacity="0" stroke="#ffbb0b" stroke-width="3" stroke-opacity="1"></use></g></g><g><g><use xlink:href="#cpZlJ9ZLZ" opacity="1" fill-opacity="0" stroke="#ffbb0b" stroke-width="3" stroke-opacity="1"></use></g></g><g><g><use xlink:href="#a6r0vsWxIA" opacity="1" fill-opacity="0" stroke="#ffbb0b" stroke-width="3" stroke-opacity="1"></use></g></g></g></svg>