<svg xmlns="http://www.w3.org/2000/svg" viewBox="0 0 263.15 148.76"><defs><style>.a{fill:#3cc;}.b{fill:#fafafa;}.c{fill:#27debf;}.d{fill:#263238;}.e,.f,.g{fill:#019966;}.f{opacity:0.55;}.g{opacity:0.45;}.h{fill:#0cf;}.h,.i{opacity:0.3;}.j{opacity:0.15;}.k{fill:#f5f5f5;}</style></defs><path class="a" d="M116.76,221.48l-20.69,12a.61.61,0,0,0,0,1.16l13.12,7.58a2.25,2.25,0,0,0,2,0l20.69-11.95a.61.61,0,0,0,0-1.16l-13.12-7.58A2.25,2.25,0,0,0,116.76,221.48Z" transform="translate(-95.65 -178.7)"/><path class="b" d="M121.44,233.62l-7.52,4.53H110.2a.2.2,0,0,0-.11,0l-3.94,2.23.47.27,3.64-2.07H114l.12,0,7.57-4.56a.23.23,0,0,0-.24-.4Z" transform="translate(-95.65 -178.7)"/><path class="b" d="M96.86,235.05l3.65-2.11h3.72a.27.27,0,0,0,.12,0l7.57-4.37a.24.24,0,0,0,.08-.32.23.23,0,0,0-.32-.08l-7.51,4.34h-3.73a.2.2,0,0,0-.11,0l-3.94,2.27Z" transform="translate(-95.65 -178.7)"/><path class="b" d="M105.39,235.8h3.72l.12,0,7.57-4.37a.23.23,0,0,0,.08-.32.24.24,0,0,0-.32-.09l-7.51,4.34h-3.72a.27.27,0,0,0-.12,0l-3.9,2.26.46.27Z" transform="translate(-95.65 -178.7)"/><path class="b" d="M102.69,234.24h3.73a.2.2,0,0,0,.11,0l1.9-1.09a.24.24,0,0,0,.08-.32.23.23,0,0,0-.32-.08l-1.84,1.06h-3.72a.2.2,0,0,0-.11,0l-3.91,2.25.47.27Z" transform="translate(-95.65 -178.7)"/><path class="b" d="M112.32,228a.32.32,0,0,1,0,.6,1.19,1.19,0,0,1-1,0,.32.32,0,0,1,0-.6A1.19,1.19,0,0,1,112.32,228Z" transform="translate(-95.65 -178.7)"/><path class="b" d="M108.82,232.62c.29.16.29.43,0,.6a1.17,1.17,0,0,1-1,0,.32.32,0,0,1,0-.6A1.17,1.17,0,0,1,108.82,232.62Z" transform="translate(-95.65 -178.7)"/><path class="b" d="M117.2,230.9a.31.31,0,0,1,0,.59,1.12,1.12,0,0,1-1,0,.31.31,0,0,1,0-.59A1.12,1.12,0,0,1,117.2,230.9Z" transform="translate(-95.65 -178.7)"/><polygon class="c" points="44.82 71.65 48.62 73.83 79.58 56.4 75.8 54.21 44.82 71.65"/><path class="d" d="M263.23,222l-73.3-42.32a8.88,8.88,0,0,0-8.07,0L97.32,228.48a1.5,1.5,0,0,0-.9,1.25v.52a1.2,1.2,0,0,0,.66,1,4.1,4.1,0,0,0,3.79-.07l11.1-6.41a4.41,4.41,0,0,1,4,0l7.32,4.22a.92.92,0,0,1,0,1.83L116,235a1.4,1.4,0,0,0-.82,1.16v.52a1.4,1.4,0,0,0,.82,1.15l14.9,8.59a4.43,4.43,0,0,0,4,0l37.59-21.7a4.32,4.32,0,0,1,3.91-.08,1.44,1.44,0,0,1,.71.8,1.68,1.68,0,0,1-.83,1l-41.37,23.89a1.4,1.4,0,0,0-.83,1.16V252a1.4,1.4,0,0,0,.83,1.16l11.09,6.4a4.47,4.47,0,0,0,4,0l22.46-13a1.42,1.42,0,0,0,.83-1.17v-.52a1.4,1.4,0,0,0-.83-1.15l-2.2-1.27a.92.92,0,0,1,0-1.83l22.46-13a4.41,4.41,0,0,1,4,0l28.7,16.57a4.47,4.47,0,0,0,4,0l33.69-19.45a1.41,1.41,0,0,0,.83-1.2v-.46A1.38,1.38,0,0,0,263.23,222ZM150.41,245.72a3.37,3.37,0,0,1,3.06,0,1.23,1.23,0,0,1,.55.56,1.28,1.28,0,0,1-.54.55,3.39,3.39,0,0,1-3.07,0,1.31,1.31,0,0,1-.55-.55A1.23,1.23,0,0,1,150.41,245.72Zm7.68-4.43a3.39,3.39,0,0,1,3.07,0,1.31,1.31,0,0,1,.55.55,1.28,1.28,0,0,1-.55.56,3.39,3.39,0,0,1-3.07,0,1.34,1.34,0,0,1-.55-.56A1.38,1.38,0,0,1,158.09,241.29Zm12.16-6.57a3.39,3.39,0,0,1,3.07,0,1.28,1.28,0,0,1,.55.56,1.31,1.31,0,0,1-.55.55,3.39,3.39,0,0,1-3.07,0,1.32,1.32,0,0,1-.55-.55A1.34,1.34,0,0,1,170.25,234.72Zm-27.53,15.43a3.39,3.39,0,0,1,3.07,0,1.28,1.28,0,0,1,.55.56,1.31,1.31,0,0,1-.55.55,3.39,3.39,0,0,1-3.07,0,1.38,1.38,0,0,1-.55-.55A1.34,1.34,0,0,1,142.72,250.15Z" transform="translate(-95.65 -178.7)"/><path class="e" d="M358.8,280.12A1.4,1.4,0,0,0,358,279L312.8,252.88a4.47,4.47,0,0,0-4,0l-75.44,43.56a1.38,1.38,0,0,0-.83,1.16v2.14a1.38,1.38,0,0,0,.83,1.16L278.49,327a4.43,4.43,0,0,0,4,0L358,283.42a1.4,1.4,0,0,0,.83-1.15Z" transform="translate(-95.65 -178.7)"/><path class="f" d="M280.51,325.33v2.13a4.27,4.27,0,0,1-2-.47l-45.17-26.08a1.43,1.43,0,0,1-.82-1.18c0-.37,0-1.75,0-2.13a1.41,1.41,0,0,0,.82,1.16l45.17,26.08A4,4,0,0,0,280.51,325.33Z" transform="translate(-95.65 -178.7)"/><path class="e" d="M312.07,252.6H309.5A4.68,4.68,0,0,1,312.07,252.6Z" transform="translate(-95.65 -178.7)"/><path class="g" d="M358.8,280.28v2a1.42,1.42,0,0,1-.83,1.16L282.53,327a4.27,4.27,0,0,1-2,.47v-2.13a4.06,4.06,0,0,0,2-.49L358,281.29A1.57,1.57,0,0,0,358.8,280.28Z" transform="translate(-95.65 -178.7)"/><path class="e" d="M282.53,324.84,358,281.29a1.23,1.23,0,0,0,0-2.33L312.8,252.88a4.47,4.47,0,0,0-4,0l-75.44,43.56a1.23,1.23,0,0,0,0,2.33l45.16,26.07A4.43,4.43,0,0,0,282.53,324.84Z" transform="translate(-95.65 -178.7)"/><path class="h" d="M282.53,324.84,358,281.29a1.23,1.23,0,0,0,0-2.33L312.8,252.88a4.47,4.47,0,0,0-4,0l-75.44,43.56a1.23,1.23,0,0,0,0,2.33l45.16,26.07A4.43,4.43,0,0,0,282.53,324.84Z" transform="translate(-95.65 -178.7)"/><path class="e" d="M277.45,311.45l-8.82,5.09c-.22.13-.32.28-.21.34a.75.75,0,0,0,.59-.12l8.53-4.93,2.95,1.7a.21.21,0,0,0,.19,0l4.56-2.64a.18.18,0,0,0,.1-.16v-3.4l7.09-4.1a1.17,1.17,0,0,0,.87-.09c.31-.17.31-.45,0-.63a1.23,1.23,0,0,0-1.09,0c-.24.14-.29.34-.15.51l-7,4a.18.18,0,0,0-.1.16v3.4l-4.37,2.53-2.95-1.7A.21.21,0,0,0,277.45,311.45Z" transform="translate(-95.65 -178.7)"/><path class="e" d="M275.1,320.27l13.2-7.61a.22.22,0,0,0,.09-.17v-3.41l3.08-1.77a1.28,1.28,0,0,0,.87-.09c.31-.18.31-.46,0-.63a1.17,1.17,0,0,0-1.09,0c-.24.13-.29.33-.15.5l-3,1.72a.2.2,0,0,0-.09.17v3.41l-13.28,7.67c-.23.13-.32.28-.22.34A.76.76,0,0,0,275.1,320.27Z" transform="translate(-95.65 -178.7)"/><path class="e" d="M349.67,276.78l-16.23,9.37a.17.17,0,0,0-.09.16v3.41l-37.23,21.49a1.19,1.19,0,0,0-.87.09c-.3.17-.3.45,0,.63a1.25,1.25,0,0,0,1.1,0c.23-.14.28-.34.15-.51L333.63,290a.22.22,0,0,0,.09-.16v-3.41L350.05,277c.22-.13.32-.28.21-.34A.77.77,0,0,0,349.67,276.78Z" transform="translate(-95.65 -178.7)"/><path class="e" d="M278.13,322l13.2-7.62a.19.19,0,0,0,.09-.16v-3.41l7.07-4.08a1.23,1.23,0,0,0,.89-.09c.3-.17.3-.45,0-.63a1.25,1.25,0,0,0-1.1,0c-.23.14-.28.33-.15.5l-7,4a.18.18,0,0,0-.09.16v3.41l-13.29,7.67c-.22.13-.32.28-.22.34A.79.79,0,0,0,278.13,322Z" transform="translate(-95.65 -178.7)"/><path class="e" d="M323.81,261.85l-5.58,3.22a.19.19,0,0,0-.1.16v3.41l-5.57,3.22a1.22,1.22,0,0,0-.87.08.34.34,0,0,0,0,.64,1.23,1.23,0,0,0,1.09,0c.24-.14.29-.34.15-.51l5.48-3.16a.2.2,0,0,0,.1-.16v-3.41l5.68-3.28c.22-.13.32-.28.21-.34A.76.76,0,0,0,323.81,261.85Z" transform="translate(-95.65 -178.7)"/><path class="e" d="M352.72,278.53l-8.21,4.74a1.32,1.32,0,0,0-.88.09c-.3.18-.3.46,0,.63a1.19,1.19,0,0,0,1.1,0c.24-.13.28-.33.15-.5l8.21-4.74c.22-.13.32-.28.22-.34A.74.74,0,0,0,352.72,278.53Z" transform="translate(-95.65 -178.7)"/><path class="e" d="M290.84,272.42l1.24.72-3.94,2.27h-6a.17.17,0,0,0-.1,0l-7.6,4.39a.19.19,0,0,0-.1.16v3.52a.2.2,0,0,0,.1.16l1.24.71-8.83,5.1a.19.19,0,0,0-.1.16v3.41l-4.39,2.54L258,293.06v-3.3l12.22-7.05a1.22,1.22,0,0,0,.87-.09.33.33,0,0,0,0-.63,1.17,1.17,0,0,0-1.09,0c-.24.13-.28.34-.15.5l-12.13,7a.2.2,0,0,0-.09.16v3.52a.2.2,0,0,0,.09.16L262,295.8l-14.63,8.44c-.22.13-.31.29-.21.35a.81.81,0,0,0,.59-.13L262.33,296l1.34.77,0,3.34L252,306.91c-.22.13-.32.28-.22.34a.76.76,0,0,0,.59-.13L264,300.4a.16.16,0,0,0,.09-.16l0-3.56a.19.19,0,0,0-.09-.16l-1.24-.72,4.3-2.48a.2.2,0,0,0,.09-.16v-3.41L276,284.6l10.28,5.93-14.93,8.62a.21.21,0,0,0-.1.17v5.16l-11.77,6.79c-.22.13-.31.28-.21.34a.75.75,0,0,0,.59-.12l11.67-6.74a.21.21,0,0,0,.1-.17v-5.16l15-8.67,7.42,4.28v3.3l-28.5,16.45c-.22.13-.32.28-.22.34A.74.74,0,0,0,266,315l28.41-16.4a.19.19,0,0,0,.1-.16v-3.52a.19.19,0,0,0-.1-.16l-7.32-4.23,5.38-3.11a1.17,1.17,0,0,0,.87-.09c.31-.17.31-.45,0-.63a1.23,1.23,0,0,0-1.09,0c-.24.14-.29.34-.15.51l-5.39,3.11-10.27-5.94,8.72-5a1.32,1.32,0,0,0,.88-.09c.3-.18.3-.46,0-.63a1.19,1.19,0,0,0-1.1,0c-.24.13-.28.33-.15.5l-8.73,5-1.33-.77v-3.3l7.47-4.31h6a.17.17,0,0,0,.1,0l4.17-2.41,4.19,2.42L284,283.1a1.19,1.19,0,0,0-.87.09.33.33,0,0,0,0,.63,1.19,1.19,0,0,0,1.1,0c.23-.13.28-.34.15-.5L297,276l4.19,2.42-8.54,4.93a1.21,1.21,0,0,0-.88.09.33.33,0,0,0,0,.63,1.19,1.19,0,0,0,1.1,0c.23-.14.28-.34.15-.5l8.55-4.94,7.23,4.18-2.67,1.54-2.95-1.7a.17.17,0,0,0-.19,0l-3.44,2a1.29,1.29,0,0,0-.87.09c-.3.18-.3.46,0,.63a1.17,1.17,0,0,0,1.09,0c.24-.13.29-.33.16-.5l3.16-1.82,2.95,1.7a.19.19,0,0,0,.18,0l2.95-1.7,2.67,1.54-14.21,8.2a1.26,1.26,0,0,0-.88.09c-.3.18-.3.46,0,.63a1.19,1.19,0,0,0,1.1,0c.23-.13.28-.34.15-.5l14.22-8.21,1.33.77v3.3l-9,5.21a.21.21,0,0,0-.1.17v3.4l-5.57,3.22a1.17,1.17,0,0,0-.87.09.33.33,0,0,0,0,.63,1.23,1.23,0,0,0,1.09,0c.24-.14.28-.34.15-.5l5.48-3.17a.18.18,0,0,0,.1-.16v-3.41l9-5.21a.18.18,0,0,0,.09-.16v-3.52a.18.18,0,0,0-.09-.16l-1.24-.71,7.33-4.23a.22.22,0,0,0,.09-.17v-3.4l14.81-8.55c.22-.13.32-.28.21-.34a.79.79,0,0,0-.59.12l-14.71,8.5a.18.18,0,0,0-.1.16v3.41l-7.41,4.28-2.67-1.54,4.28-2.47a.2.2,0,0,0,.09-.17v-3.4l17.85-10.31c.23-.13.32-.28.22-.34a.76.76,0,0,0-.59.13l-17.76,10.25a.17.17,0,0,0-.09.16v3.41l-4.38,2.52L302,278.41l7.33-4.23a.22.22,0,0,0,.09-.16V267.1l11.76-6.79c.23-.13.32-.29.22-.35a.76.76,0,0,0-.59.13l-11.67,6.74a.17.17,0,0,0-.09.16v6.92l-7.42,4.28-4.19-2.42,7.32-4.23a.18.18,0,0,0,.1-.16v-5.16l13.28-7.67c.22-.13.32-.28.22-.34a.74.74,0,0,0-.59.12L304.54,266a.18.18,0,0,0-.1.16v5.16L297,275.56l-4.19-2.42,6.91-4a1.17,1.17,0,0,0,.87-.09.33.33,0,0,0,0-.63,1.23,1.23,0,0,0-1.09,0c-.24.14-.29.34-.15.5l-6.91,4-1.34-.77v-3.3l22.42-12.94c.22-.12.32-.28.21-.34a.77.77,0,0,0-.59.13l-22.32,12.88a.22.22,0,0,0-.09.17v3.51A.19.19,0,0,0,290.84,272.42Z" transform="translate(-95.65 -178.7)"/><path class="e" d="M346.63,275l-16.23,9.37a.21.21,0,0,0-.1.17V288l-14.85,8.57a1.29,1.29,0,0,0-.87.09c-.3.18-.3.46,0,.63a1.19,1.19,0,0,0,1.1,0c.23-.13.28-.33.15-.5l14.75-8.52a.18.18,0,0,0,.1-.16v-3.41L347,275.24c.22-.13.32-.28.21-.34A.75.75,0,0,0,346.63,275Z" transform="translate(-95.65 -178.7)"/><path class="e" d="M328.38,264.48l-3.65,2.11a1.22,1.22,0,0,0-.87.08.34.34,0,0,0,0,.64,1.23,1.23,0,0,0,1.09,0c.24-.14.29-.34.15-.51l3.65-2.1c.22-.13.32-.28.22-.34A.74.74,0,0,0,328.38,264.48Z" transform="translate(-95.65 -178.7)"/><path class="e" d="M244.67,302.7l5.58-3.22a.2.2,0,0,0,.1-.16v-3.41l4.05-2.34a1.17,1.17,0,0,0,.87-.09c.3-.17.3-.45,0-.63a1.23,1.23,0,0,0-1.09,0c-.24.14-.29.34-.15.5l-4,2.29a.19.19,0,0,0-.1.16v3.41l-5.68,3.28c-.22.13-.32.28-.21.34A.77.77,0,0,0,244.67,302.7Z" transform="translate(-95.65 -178.7)"/><path class="e" d="M238.58,299.19l3.65-2.11a1.22,1.22,0,0,0,.87-.08.34.34,0,0,0,0-.64,1.23,1.23,0,0,0-1.09,0c-.24.14-.29.34-.15.51l-3.65,2.1c-.23.13-.32.29-.22.35A.81.81,0,0,0,238.58,299.19Z" transform="translate(-95.65 -178.7)"/><path class="e" d="M241.62,301l5.59-3.23a.18.18,0,0,0,.1-.16v-3.41l5.57-3.21a1.29,1.29,0,0,0,.87-.09c.3-.18.3-.46,0-.63a1.17,1.17,0,0,0-1.09,0c-.24.13-.29.33-.16.5L247,293.88a.22.22,0,0,0-.09.17v3.4l-5.68,3.28c-.22.13-.32.28-.22.34A.74.74,0,0,0,241.62,301Z" transform="translate(-95.65 -178.7)"/><path class="e" d="M286.19,268v3.3l-2.13,1.23a1.26,1.26,0,0,0-.88.09.33.33,0,0,0,0,.63,1.19,1.19,0,0,0,1.1,0c.23-.13.28-.34.15-.5l2-1.18a.17.17,0,0,0,.09-.16v-3.62Z" transform="translate(-95.65 -178.7)"/><path class="e" d="M339,270.63l-13.19,7.62a.19.19,0,0,0-.09.16v6.92l-16.64,9.6a.2.2,0,0,0-.09.17v5.16l-5.28,3a1.22,1.22,0,0,0-.87.09.33.33,0,0,0,0,.63,1.17,1.17,0,0,0,1.09,0c.24-.13.29-.34.15-.5l5.19-3a.22.22,0,0,0,.09-.16V295.2L326,285.6a.2.2,0,0,0,.09-.17v-6.91l13.29-7.67c.22-.13.32-.29.22-.35A.79.79,0,0,0,339,270.63Z" transform="translate(-95.65 -178.7)"/><path class="e" d="M342.07,272.39,338,274.73a.22.22,0,0,0-.09.16v1.65l-5.57,3.22a1.21,1.21,0,0,0-.88.09.33.33,0,0,0,0,.63,1.25,1.25,0,0,0,1.1,0c.24-.14.28-.34.15-.5l5.48-3.17a.17.17,0,0,0,.09-.16V275l4.16-2.4c.22-.13.32-.28.22-.34A.76.76,0,0,0,342.07,272.39Z" transform="translate(-95.65 -178.7)"/><path class="e" d="M274.31,306.23,262.55,313c-.23.13-.32.28-.22.34a.76.76,0,0,0,.59-.13l11.67-6.74a.18.18,0,0,0,.1-.16v-3.4l8.61-5a1.21,1.21,0,0,0,.88-.09c.3-.17.3-.45,0-.63a1.25,1.25,0,0,0-1.1,0c-.23.14-.28.34-.15.51l-8.52,4.92a.18.18,0,0,0-.1.16Z" transform="translate(-95.65 -178.7)"/><path class="e" d="M268.23,302.72l-11.77,6.79c-.22.13-.32.29-.21.34a.75.75,0,0,0,.59-.12L268.51,303a.17.17,0,0,0,.09-.16v-6.92l5.58-3.22a1.19,1.19,0,0,0,.87-.09c.3-.17.3-.45,0-.63a1.25,1.25,0,0,0-1.1,0c-.23.14-.28.34-.15.51l-5.48,3.16a.18.18,0,0,0-.09.16Z" transform="translate(-95.65 -178.7)"/><path class="c" d="M199.53,189.76a.63.63,0,0,1-.38.52l-48.17,28a1.87,1.87,0,0,1-.9.21v1.1a1.84,1.84,0,0,0,.9-.21l47.64-27.69c.5-.29.9-.41.9-1Z" transform="translate(-95.65 -178.7)"/><path class="i" d="M199.53,189.76a.63.63,0,0,1-.38.52l-48.17,28a1.87,1.87,0,0,1-.9.21v1.1a1.84,1.84,0,0,0,.9-.21l47.64-27.69c.5-.29.9-.41.9-1Z" transform="translate(-95.65 -178.7)"/><path class="a" d="M149.17,218.28l-12.36-7.14a.55.55,0,0,1,0-1l48.16-28a2,2,0,0,1,1.82,0l12.36,7.13a.56.56,0,0,1,0,1.05l-48.17,28A2,2,0,0,1,149.17,218.28Z" transform="translate(-95.65 -178.7)"/><path class="c" d="M136.43,210.64v.89c0,.58.41.73.91,1l11.83,6.83a1.91,1.91,0,0,0,.91.21v-1.1a1.8,1.8,0,0,1-.91-.21l-12.36-7.14A.69.69,0,0,1,136.43,210.64Z" transform="translate(-95.65 -178.7)"/><path class="j" d="M136.43,210.63v.9c0,.58.41.73.91,1l11.83,6.83a1.91,1.91,0,0,0,.91.21v-1.1a1.71,1.71,0,0,1-.91-.23l-12.36-7.14A.66.66,0,0,1,136.43,210.63Z" transform="translate(-95.65 -178.7)"/><path class="k" d="M139.82,210.17l45.42-26.41a1.38,1.38,0,0,1,1.28,0l9.63,5.55a.54.54,0,0,1,.3.45.56.56,0,0,1-.3.45l-45.43,26.41a1.4,1.4,0,0,1-1.29,0l-9.61-5.56a.52.52,0,0,1-.31-.45.42.42,0,0,1,.06-.21A.56.56,0,0,1,139.82,210.17Zm56.37-20.41c0-.08-.07-.15-.17-.22L186.39,184a1.21,1.21,0,0,0-1,0L140,210.4h0c-.11.06-.17.14-.17.21a.27.27,0,0,0,.17.22l9.62,5.56a1.12,1.12,0,0,0,1,0L196,190a.31.31,0,0,0,.14-.14A.13.13,0,0,0,196.19,189.76Z" transform="translate(-95.65 -178.7)"/><path class="k" d="M143.45,210.39l42.12-24.5a.68.68,0,0,1,.62,0l6.38,3.65a.3.3,0,0,1,.16.25.33.33,0,0,1-.16.26l-42.18,24.5a.75.75,0,0,1-.62,0l-6.32-3.65a.29.29,0,0,1-.17-.25.28.28,0,0,1,0-.13A.4.4,0,0,1,143.45,210.39Zm.1.25Zm48.89-20.87-6.38-3.65h0a.36.36,0,0,0-.35,0l-42.13,24.5s0,0,0,0l0,0,6.33,3.65a.53.53,0,0,0,.35,0l42.18-24.5,0,0Z" transform="translate(-95.65 -178.7)"/></svg>