<svg xmlns="http://www.w3.org/2000/svg" viewBox="0 0 286.69 167.91"><defs><style>.a{fill:#27debf;}.b,.c,.d{fill:#fff;}.b{opacity:0.55;}.c{opacity:0.7;}.d,.e{opacity:0.9;}</style></defs><path class="a" d="M374.88,286.31,189.93,179.53a8.9,8.9,0,0,0-8.07,0L91.53,231.68A2.82,2.82,0,0,0,89.86,234v2.4a2.85,2.85,0,0,0,1.67,2.32l185,106.78a9,9,0,0,0,8.07,0l90.33-52.15a2.81,2.81,0,0,0,1.66-2.34v-2.38A2.82,2.82,0,0,0,374.88,286.31Z" transform="translate(-89.86 -178.56)"/><path class="b" d="M280.51,344.08v2.39a8.32,8.32,0,0,1-4-1L91.53,238.73a2.85,2.85,0,0,1-1.67-2.31V234a2.82,2.82,0,0,0,1.67,2.33L276.47,343.12A8.21,8.21,0,0,0,280.51,344.08Z" transform="translate(-89.86 -178.56)"/><path class="c" d="M376.54,288.74V291a2.79,2.79,0,0,1-1.66,2.34l-90.34,52.16a8.25,8.25,0,0,1-4,1v-2.39a8.17,8.17,0,0,0,4-1L374.88,291A2.88,2.88,0,0,0,376.54,288.74Z" transform="translate(-89.86 -178.56)"/><path class="d" d="M284.55,343.12,374.88,291c2.22-1.29,2.22-3.37,0-4.66L189.93,179.53a8.9,8.9,0,0,0-8.07,0L91.53,231.68c-2.23,1.29-2.23,3.37,0,4.66l185,106.78A8.9,8.9,0,0,0,284.55,343.12Z" transform="translate(-89.86 -178.56)"/><g class="e"><path class="a" d="M185.89,178.8a8,8,0,0,1,3.92.93l185,106.78a2.24,2.24,0,0,1,0,4.26l-90.33,52.15a8.73,8.73,0,0,1-7.84,0L91.64,236.14a2.24,2.24,0,0,1,0-4.26L182,179.73a8,8,0,0,1,3.91-.93m0-.24a8.26,8.26,0,0,0-4,1L91.53,231.68c-2.23,1.29-2.23,3.37,0,4.66l185,106.78a9,9,0,0,0,8.07,0L374.88,291c2.22-1.29,2.22-3.37,0-4.66L189.93,179.53a8.32,8.32,0,0,0-4-1Z" transform="translate(-89.86 -178.56)"/></g></svg>