<svg xmlns="http://www.w3.org/2000/svg" viewBox="0 0 292.28 179.86"><defs><style>.a{fill:#37474f;}.b{fill:#263238;}.c{fill:#455a64;}</style></defs><path class="a" d="M376.28,240.19l-185-106.78a11.6,11.6,0,0,0-10.86,0L90.13,185.56a5.54,5.54,0,0,0-3.06,4.75V199a5.55,5.55,0,0,0,3.06,4.76l185,106.78a11.67,11.67,0,0,0,10.86,0l90.34-52.16a5.55,5.55,0,0,0,3.06-4.74v-8.74A5.57,5.57,0,0,0,376.28,240.19ZM181.86,144.57a8.9,8.9,0,0,1,8.07,0L371.35,249.31l-86.8,50.11a9,9,0,0,1-8.08,0L95.06,194.68Z" transform="translate(-87.07 -132.06)"/><path class="b" d="M280.51,300.38a8.32,8.32,0,0,1-4-1L95.06,194.68l17-9.84-9.89-6.25-12.08,7a5.54,5.54,0,0,0-3.06,4.75V199a5.55,5.55,0,0,0,3.06,4.76l185,106.78a10.92,10.92,0,0,0,5.43,1.34h0Z" transform="translate(-87.07 -132.06)"/><path class="c" d="M376.28,240.19l-185-106.78a11.6,11.6,0,0,0-10.86,0L90.13,185.56a5.22,5.22,0,0,0,0,9.5l2.13,1.23L275.07,301.84a11.69,11.69,0,0,0,10.87,0l88.19-50.92,2.15-1.24a5.21,5.21,0,0,0,0-9.49Zm-91.73,59.23a9,9,0,0,1-8.08,0L95.06,194.68l86.8-50.11a8.9,8.9,0,0,1,8.07,0L371.35,249.31Z" transform="translate(-87.07 -132.06)"/><path class="b" d="M374.88,247.27l-3.53,2L189.93,144.57a8.9,8.9,0,0,0-8.07,0l-86.8,50.11-3.53-2.05c-2.23-1.28-2.23-3.37,0-4.65l90.33-52.15a8.9,8.9,0,0,1,8.07,0l185,106.78C377.11,243.9,377.11,246,374.88,247.27Z" transform="translate(-87.07 -132.06)"/><path class="a" d="M185.89,143.6v-8.74a8.26,8.26,0,0,0-4,1L91.53,188c-2.23,1.28-2.23,3.37,0,4.65l3.53,2.05,86.8-50.11A8.15,8.15,0,0,1,185.89,143.6Z" transform="translate(-87.07 -132.06)"/></svg>