<svg xmlns="http://www.w3.org/2000/svg" viewBox="0 0 286.67 167.71"><defs><style>.a,.b,.h,.i{fill:#27debf;}.a,.d,.f{opacity:0.3;}.b{opacity:0.1;}.c,.e{opacity:0.2;}.d{fill:#fff;}.g,.i{opacity:0.7;}</style></defs><path class="a" d="M376.44,336.07a3.43,3.43,0,0,0-.31-.6,3.68,3.68,0,0,0-1.25-1.09L363.77,328l-47-27.15-26.4-15.24-100.43-58a8.88,8.88,0,0,0-8.07,0L170.75,234,159,240.79l-16.45,9.49-5.5,3.18-9.21,5.31-16,9.23L91.53,279.75l-.39.25c-.12.08-.24.18-.34.26l-.28.28c-.08.09-.16.2-.23.29h0c-.06.07-.09.15-.14.22a.66.66,0,0,0-.07.15l0,.05,0,.07,0,.08a.67.67,0,0,0,0,.19l0,.14a1.91,1.91,0,0,0,0,.32v2.23a1.71,1.71,0,0,0,0,.31,2.82,2.82,0,0,0,.07.31,3.24,3.24,0,0,0,1.56,1.69L265.37,387h0l11.09,6.41a8.32,8.32,0,0,0,4,1,5.23,5.23,0,0,0,.79,0,2,2,0,0,0,.34,0,3.42,3.42,0,0,0,.63-.09,5.31,5.31,0,0,0,.81-.19,6.68,6.68,0,0,0,1.47-.61l90.33-52.16a3.78,3.78,0,0,0,1.25-1.09c.05-.08.11-.15.16-.24a.08.08,0,0,1,0-.05h0a1.73,1.73,0,0,0,.13-.33,1.53,1.53,0,0,0,.07-.29,1.66,1.66,0,0,0,0-.32v-.13c0-.44,0-1.46,0-1.92h0v-.13A2.24,2.24,0,0,0,376.44,336.07Zm-64.39,28.39a3.67,3.67,0,0,1,1.59-1.63l3.12-1.81,3.95-2.28a8.66,8.66,0,0,1,7.82-.14,3.06,3.06,0,0,1,1.33,1.38,3.45,3.45,0,0,1-1.58,1.63l-7.07,4.08a8.49,8.49,0,0,1-4.45,1,7.33,7.33,0,0,1-3.36-.86A3,3,0,0,1,312.05,364.46ZM154.18,252.32a4.19,4.19,0,0,1,3.78,0,1.56,1.56,0,0,1,.44.34,2,2,0,0,1-.44.32,4.13,4.13,0,0,1-3.78,0,2.27,2.27,0,0,1-.44-.32A1.71,1.71,0,0,1,154.18,252.32ZM127.36,267.8l.51-.29,9.21-5.31,5.5-3.18,3.9-2.26a4.33,4.33,0,0,1,3.9-.07,1.36,1.36,0,0,1,.41.32h0a2.63,2.63,0,0,1-.53.41l-7.68,4.44-5.5,3.17-5.94,3.43a4.45,4.45,0,0,1-3.27.33,2.39,2.39,0,0,1-.64-.26,1.42,1.42,0,0,1-.4-.31A2.19,2.19,0,0,1,127.36,267.8Z" transform="translate(-89.87 -226.63)"/><path class="b" d="M376.44,336.07a2.45,2.45,0,0,0-.31-.6,3.68,3.68,0,0,0-1.25-1.09L363.77,328l-47-27.15-26.4-15.24-100.43-58a8.88,8.88,0,0,0-8.07,0L170.75,234,159,240.79l-16.45,9.49-5.5,3.18-9.21,5.31-16,9.23L91.53,279.75l-.39.25c-.12.08-.24.18-.34.26l-.28.28c-.08.09-.16.2-.23.29h0c-.06.07-.09.15-.14.22a.66.66,0,0,0-.07.15l0,.05,0,.07,0,.08a.67.67,0,0,0,0,.19l0,.14a1.91,1.91,0,0,0,0,.32v.16a1.24,1.24,0,0,0,0,.18.17.17,0,0,0,0,.05.25.25,0,0,0,0,.08s0,.08,0,.12l0,0v0a1.22,1.22,0,0,0,.07.17,1.57,1.57,0,0,0,.19.36c0,.08.11.14.15.22a1.37,1.37,0,0,0,.16.18.71.71,0,0,0,.15.15l0,0a.87.87,0,0,0,.14.12,3.7,3.7,0,0,0,.66.47L265.38,384.78l1.89,1.09,9.2,5.32a3.61,3.61,0,0,0,.44.22l.12.06.19.08,0,0c.18.08.37.14.55.2h0c.21.06.42.12.63.16h.05l.17,0c.21,0,.44.08.66.11l.27,0,.27,0,.6,0a8.28,8.28,0,0,0,4-1l5.82-3.36,26.4-15.24L374.88,339a2.35,2.35,0,0,0,.37-.24,1.08,1.08,0,0,0,.24-.18l.22-.19a2.55,2.55,0,0,0,.23-.24.31.31,0,0,0,.09-.11,1.31,1.31,0,0,0,.19-.27,1.08,1.08,0,0,0,.12-.24.88.88,0,0,0,.09-.2,1,1,0,0,0,.05-.18l0-.13,0-.21h0v-.13A2.24,2.24,0,0,0,376.44,336.07ZM150.79,257a2.63,2.63,0,0,1-.53.41l-7.68,4.44-5.5,3.17-5.94,3.43a4.45,4.45,0,0,1-3.27.33,2.39,2.39,0,0,1-.64-.26,1.42,1.42,0,0,1-.4-.31,2.19,2.19,0,0,1,.53-.43l.51-.29,9.21-5.31,5.5-3.18,3.9-2.26a4.33,4.33,0,0,1,3.9-.07,1.36,1.36,0,0,1,.41.32Zm7.17-4a4.13,4.13,0,0,1-3.78,0,2.27,2.27,0,0,1-.44-.32,1.71,1.71,0,0,1,.44-.34,4.19,4.19,0,0,1,3.78,0,1.56,1.56,0,0,1,.44.34A2,2,0,0,1,158,253ZM328.28,361.61l-7.07,4.08a8.49,8.49,0,0,1-4.45,1,7.33,7.33,0,0,1-3.36-.86,3,3,0,0,1-1.35-1.37,3.67,3.67,0,0,1,1.59-1.63l3.12-1.81,3.95-2.28a8.66,8.66,0,0,1,7.82-.14,3.06,3.06,0,0,1,1.33,1.38A3.45,3.45,0,0,1,328.28,361.61Z" transform="translate(-89.87 -226.63)"/><path class="c" d="M376.54,338.89a2.8,2.8,0,0,1-1.66,2.33l-90.33,52.16a8.92,8.92,0,0,1-8.08,0L91.53,286.6a2.8,2.8,0,0,1-1.66-2.31v-2.11a2.88,2.88,0,0,0,1.66,2.23L276.47,391.19a8.9,8.9,0,0,0,8.07,0L374.88,339a2.87,2.87,0,0,0,1.66-2.2C376.53,337.33,376.53,338.56,376.54,338.89Z" transform="translate(-89.87 -226.63)"/><polygon class="d" points="80.89 7.38 71.65 12.71 71.65 98.19 80.89 103.52 80.89 7.38"/><path class="d" d="M181.92,227.57l-.06,0-5.8,3.35V333.22l5.86,3.38Z" transform="translate(-89.87 -226.63)"/><polygon class="d" points="162.45 36.99 136.05 21.75 136.05 135.37 162.45 150.61 162.45 36.99"/><path class="d" d="M126.49,267.48a1,1,0,0,0,.34.75,1.42,1.42,0,0,0,.4.31,2.39,2.39,0,0,0,.64.26v36.59l-16-9.22V268l16-9.23V266l-.51.3A1.44,1.44,0,0,0,126.49,267.48Z" transform="translate(-89.87 -226.63)"/><polygon class="d" points="52.71 23.65 52.71 30.86 47.21 34.03 47.21 26.82 52.71 23.65"/><polygon class="d" points="47.21 38.41 52.71 35.24 52.71 87.25 47.21 84.08 47.21 38.41"/><polygon class="d" points="259.26 92.88 247.53 86.11 247.53 134.04 259.26 127.27 259.26 92.88"/><path class="d" d="M312,363.06a1.84,1.84,0,0,0-.11.89V364a2.69,2.69,0,0,0,.14.46,3,3,0,0,0,1.35,1.37,7.33,7.33,0,0,0,3.36.86v5.9l-26.4,15.25V285.58l26.4,15.24v58.7l-3.12,1.8a4.14,4.14,0,0,0-1.31,1.13A2.07,2.07,0,0,0,312,363.06Z" transform="translate(-89.87 -226.63)"/><polygon class="d" points="270.42 99.33 264.56 95.94 264.56 124.21 270.42 120.83 270.42 99.33"/><polygon class="d" points="119.59 125.86 125.45 129.25 125.45 15.63 119.59 12.24 119.59 125.86"/><polygon class="d" points="182.22 48.4 176.35 45.02 176.35 158.64 182.22 162.02 182.22 48.4"/><g class="e"><path d="M151.13,256.21a1.24,1.24,0,0,0-.74-1,4.31,4.31,0,0,0-3.91.06l-3.9,2.26-5.5,3.18L127.87,266l-.51.3a1.43,1.43,0,0,0-.87,1.19c0,.26,0,1.28,0,1.55a1.28,1.28,0,0,0,.73,1,3.3,3.3,0,0,0,.64.26,4.41,4.41,0,0,0,3.27-.34l5.94-3.42,5.5-3.17,7.69-4.45a1.47,1.47,0,0,0,.86-1.16C151.14,257.51,151.13,256.48,151.13,256.21Zm-.33.8a2.26,2.26,0,0,1-.53.41l-7.69,4.45-5.5,3.17-5.94,3.43a4.45,4.45,0,0,1-3.27.33,2.39,2.39,0,0,1-.64-.26,1.42,1.42,0,0,1-.4-.31,2.19,2.19,0,0,1,.53-.43l.51-.29,9.21-5.31,5.5-3.18,3.9-2.26a4.35,4.35,0,0,1,3.91-.07,1.52,1.52,0,0,1,.41.31Z" transform="translate(-89.87 -226.63)"/><path d="M158,250.8a4.13,4.13,0,0,0-3.78,0,1.31,1.31,0,0,0-.78,1.09c0,.26,0,1.26,0,1.53a1.32,1.32,0,0,0,.78,1.09,4.19,4.19,0,0,0,3.78,0,1.3,1.3,0,0,0,.78-1.09v-1.53A1.3,1.3,0,0,0,158,250.8Zm0,2.18a4.19,4.19,0,0,1-3.78,0,2.29,2.29,0,0,1-.44-.33,1.94,1.94,0,0,1,.44-.33,4.19,4.19,0,0,1,3.78,0,1.74,1.74,0,0,1,.44.33A2,2,0,0,1,158,253Z" transform="translate(-89.87 -226.63)"/></g><g class="f"><path d="M151.09,255.94a.74.74,0,0,0-.14-.28,1.47,1.47,0,0,0-.1-.13.86.86,0,0,0-.14-.13l-.14-.12-.18-.11a4.31,4.31,0,0,0-3.91.06l-19.12,11.06a1.44,1.44,0,0,0-.87,1.19,1,1,0,0,0,.34.75,2.19,2.19,0,0,1,.53-.43l.51-.29,9.21-5.31,5.5-3.18,3.9-2.26a4.35,4.35,0,0,1,3.91-.07,1.52,1.52,0,0,1,.41.31,1.15,1.15,0,0,0,.33-.77A1,1,0,0,0,151.09,255.94Z" transform="translate(-89.87 -226.63)"/><path d="M158.71,251.66a.9.9,0,0,0-.08-.21,1.56,1.56,0,0,0-.67-.65,4.13,4.13,0,0,0-3.78,0l-.25.16-.23.21a1,1,0,0,0-.13.17,1.62,1.62,0,0,0-.1.18,1.21,1.21,0,0,0-.07.36h0V252a1.25,1.25,0,0,0,.34.61,1.94,1.94,0,0,1,.44-.33,4.19,4.19,0,0,1,3.78,0,1.48,1.48,0,0,1,.43.33,1.13,1.13,0,0,0,.35-.61v-.16A.83.83,0,0,0,158.71,251.66Z" transform="translate(-89.87 -226.63)"/></g><g class="g"><path class="h" d="M151.13,256.23a1.15,1.15,0,0,1-.33.77,1.52,1.52,0,0,0-.41-.31,4.35,4.35,0,0,0-3.91.07l-3.9,2.26-5.5,3.18-9.21,5.31-.51.29a2.19,2.19,0,0,0-.53.43,1,1,0,0,1-.34-.75,1.44,1.44,0,0,1,.87-1.19l19.12-11.06a4.31,4.31,0,0,1,3.91-.06l.18.11.14.12a.86.86,0,0,1,.14.13,1.47,1.47,0,0,1,.1.13,1.22,1.22,0,0,1,.14.28A1,1,0,0,1,151.13,256.23Z" transform="translate(-89.87 -226.63)"/><path class="h" d="M158.74,251.88V252a1.13,1.13,0,0,1-.35.61,1.48,1.48,0,0,0-.43-.33,4.19,4.19,0,0,0-3.78,0,1.94,1.94,0,0,0-.44.33,1.25,1.25,0,0,1-.34-.61v-.15h0a1.21,1.21,0,0,1,.07-.36,1.62,1.62,0,0,1,.1-.18,1,1,0,0,1,.13-.17l.23-.21.25-.16a4.13,4.13,0,0,1,3.78,0,1.56,1.56,0,0,1,.67.65.9.9,0,0,1,.08.21A.83.83,0,0,1,158.74,251.88Z" transform="translate(-89.87 -226.63)"/></g><path class="c" d="M329.75,358.26a1.72,1.72,0,0,0-.22-.33,3.4,3.4,0,0,0-1-.84,8.69,8.69,0,0,0-7.82.15l-7.07,4.08a4.14,4.14,0,0,0-1.31,1.13,2.51,2.51,0,0,0-.31.61,2.24,2.24,0,0,0-.11.67v1.49a2.52,2.52,0,0,0,1.49,2.12,7.33,7.33,0,0,0,3.36.85,8.47,8.47,0,0,0,4.45-1l7.07-4.07a2.91,2.91,0,0,0,1.72-2.39c0-.25,0-1.25,0-1.51A1.89,1.89,0,0,0,329.75,358.26Zm-.19,2.24a1.81,1.81,0,0,1-.18.23,4.61,4.61,0,0,1-1.1.88l-7.07,4.08a5.57,5.57,0,0,1-.92.44,9.43,9.43,0,0,1-.9.29,9.3,9.3,0,0,1-2.63.27l-.47,0a7,7,0,0,1-.92-.12l-.41-.09-.42-.12a5.11,5.11,0,0,1-1.14-.5,3.42,3.42,0,0,1-.92-.72,1.09,1.09,0,0,1-.21-.27,1,1,0,0,1-.12-.19,1.19,1.19,0,0,1-.08-.16s0,0,0,0a3.67,3.67,0,0,1,1.59-1.63l3.12-1.81,3.95-2.28a8.66,8.66,0,0,1,7.82-.14,3.06,3.06,0,0,1,1.33,1.38A2,2,0,0,1,329.56,360.5Z" transform="translate(-89.87 -226.63)"/><path class="i" d="M330,359.22a1.89,1.89,0,0,1-.16.76,3.06,3.06,0,0,0-1.33-1.38,8.66,8.66,0,0,0-7.82.14L316.76,361l-3.12,1.81a3.67,3.67,0,0,0-1.59,1.63,2.69,2.69,0,0,1-.14-.46V364a1.84,1.84,0,0,1,.11-.89,2.07,2.07,0,0,1,.31-.61,4.14,4.14,0,0,1,1.31-1.13l7.07-4.08a8.69,8.69,0,0,1,7.82-.15,3.4,3.4,0,0,1,1,.84,1.72,1.72,0,0,1,.22.33A1.89,1.89,0,0,1,330,359.22Z" transform="translate(-89.87 -226.63)"/><path class="i" d="M330,359.22a1.89,1.89,0,0,1-.16.76,3.06,3.06,0,0,0-1.33-1.38,8.66,8.66,0,0,0-7.82.14L316.76,361l-3.12,1.81a3.67,3.67,0,0,0-1.59,1.63,2.69,2.69,0,0,1-.14-.46V364a1.84,1.84,0,0,1,.11-.89,2.07,2.07,0,0,1,.31-.61,4.14,4.14,0,0,1,1.31-1.13l7.07-4.08a8.69,8.69,0,0,1,7.82-.15,3.4,3.4,0,0,1,1,.84,1.72,1.72,0,0,1,.22.33A1.89,1.89,0,0,1,330,359.22Z" transform="translate(-89.87 -226.63)"/></svg>