<svg xmlns="http://www.w3.org/2000/svg" viewBox="0 0 292.28 173.98"><defs><style>.a{fill:#37474f;}.b{fill:#263238;}.c{fill:#455a64;}.d{fill:#fff;opacity:0.3;}.e{fill:#6cf;}</style></defs><path class="a" d="M376.28,143l-185-106.79a11.67,11.67,0,0,0-10.86,0L90.13,88.33a5.53,5.53,0,0,0-3.06,4.74v2.86a5.55,5.55,0,0,0,3.06,4.75l2.13,1.23L275.07,207.47a8.55,8.55,0,0,0,1.18.56l.36.13.32.11.61.18.68.14.71.12a13.67,13.67,0,0,0,1.58.1,11,11,0,0,0,5.43-1.34l88.19-50.92,2.15-1.24a5.57,5.57,0,0,0,3.06-4.74v-2.86A5.56,5.56,0,0,0,376.28,143ZM123.82,92.22l3-1.75a13.31,13.31,0,0,1,12.1,0l22,12.67c.23.13.44.27.64.41l.21.17a4.61,4.61,0,0,1,1.29,1.48h0a.41.41,0,0,1-.07.11,5.38,5.38,0,0,1-2.07,2l-3,1.75a13.37,13.37,0,0,1-12.1,0l-22-12.67c-.26-.15-.5-.31-.73-.47a3.47,3.47,0,0,1-.29-.25,2,2,0,0,1-.27-.23,4.23,4.23,0,0,1-.79-1l-.06-.11h0A5.46,5.46,0,0,1,123.82,92.22Z" transform="translate(-87.07 -34.83)"/><path class="b" d="M280.38,206v2.85a11,11,0,0,1-5.31-1.33L92.26,101.91l-2.13-1.23a5.55,5.55,0,0,1-3.06-4.75V93.07a5.55,5.55,0,0,0,3.06,4.75l2.13,1.23L275.07,204.61A11.08,11.08,0,0,0,280.38,206Z" transform="translate(-87.07 -34.83)"/><path class="c" d="M376.28,143l-185-106.79a11.67,11.67,0,0,0-10.86,0L90.13,88.33a5.21,5.21,0,0,0,0,9.49l2.13,1.23L275.07,204.61a9,9,0,0,0,1.21.57h0a3.39,3.39,0,0,0,.48.17l.15,0a.42.42,0,0,0,.16,0,3.88,3.88,0,0,0,.45.14l.31.07.1,0,.36.07.62.1.68.07h.05l.47,0h.38a11,11,0,0,0,5.43-1.34l88.19-50.92,2.15-1.24a5.21,5.21,0,0,0,0-9.49ZM163.4,104.05s0,.11,0,.16a3.12,3.12,0,0,1-.33,1h0a.41.41,0,0,1-.07.11,5.38,5.38,0,0,1-2.07,2l-3,1.75a13.37,13.37,0,0,1-12.1,0l-22-12.67c-.26-.15-.5-.31-.73-.47a3.47,3.47,0,0,1-.29-.25,2,2,0,0,1-.27-.23,4.23,4.23,0,0,1-.79-1l-.06-.11h0a2.92,2.92,0,0,1-.34-1c0-.05,0-.11,0-.16a2.9,2.9,0,0,1,.34-1.68,3.07,3.07,0,0,1,.27-.46,6,6,0,0,1,1.88-1.63l3-1.75a13.31,13.31,0,0,1,12.1,0l22,12.67C162.7,101.32,163.54,102.7,163.4,104.05Z" transform="translate(-87.07 -34.83)"/><path class="d" d="M286.07,202.77a11.55,11.55,0,0,1-11.36,0L92.26,99.05,275.07,204.61a9,9,0,0,0,1.21.57h0a3.39,3.39,0,0,0,.48.17l.15,0a.42.42,0,0,0,.16,0,3.88,3.88,0,0,0,.45.14l.31.07.1,0,.36.07.62.1.68.07h.05l.47,0h.38a11,11,0,0,0,5.43-1.34l88.19-50.92Z" transform="translate(-87.07 -34.83)"/><path class="e" d="M299.19,178.39l36.29-20.95a4.79,4.79,0,0,1,4.33,0l2.17,1.25a1.32,1.32,0,0,1,0,2.5l-36.29,21a4.79,4.79,0,0,1-4.33,0l-2.17-1.26A1.32,1.32,0,0,1,299.19,178.39Z" transform="translate(-87.07 -34.83)"/><path class="b" d="M163.4,104.05s0,.11,0,.16a3.12,3.12,0,0,1-.33,1,4.61,4.61,0,0,0-1.29-1.48l-.21-.17c-.2-.14-.41-.28-.64-.41L139,90.47a13.31,13.31,0,0,0-12.1,0l-3,1.75a5.46,5.46,0,0,0-2.14,2.06,2.92,2.92,0,0,1-.34-1c0-.05,0-.11,0-.16a2.9,2.9,0,0,1,.34-1.68,3.07,3.07,0,0,1,.27-.46,6,6,0,0,1,1.88-1.63l3-1.75a13.31,13.31,0,0,1,12.1,0l22,12.67C162.7,101.32,163.54,102.7,163.4,104.05Z" transform="translate(-87.07 -34.83)"/><path class="a" d="M132.91,86.16a12.31,12.31,0,0,0-6,1.45l-3,1.75A6,6,0,0,0,121.94,91a3.07,3.07,0,0,0-.27.46,2.9,2.9,0,0,0-.34,1.68c0,.05,0,.11,0,.16a2.92,2.92,0,0,0,.34,1,5.46,5.46,0,0,1,2.14-2.06l3-1.75a12.31,12.31,0,0,1,6-1.45Z" transform="translate(-87.07 -34.83)"/></svg>