<?xml version="1.0" encoding="UTF-8" standalone="no"?>
<!DOCTYPE svg PUBLIC "-//W3C//DTD SVG 1.1//EN" "http://www.w3.org/Graphics/SVG/1.1/DTD/svg11.dtd">
<svg version="1.1" xmlns="http://www.w3.org/2000/svg" xmlns:xlink="http://www.w3.org/1999/xlink" preserveAspectRatio="xMidYMid meet" viewBox="210.42230804418728 52.21167883211706 203.99999999999966 203.99999999999977" width="200" height="200"><defs><path d="M211.42 153.21C211.42 98.02 256.23 53.21 311.42 53.21C366.61 53.21 411.42 98.02 411.42 153.21C411.42 208.4 366.61 253.21 311.42 253.21C256.23 253.21 211.42 208.4 211.42 153.21Z" id="bCqb0UIYV"></path><path d="M314.77 101.6L316.42 101.77L318.05 102L319.66 102.29L321.24 102.65L322.8 103.06L324.34 103.53L325.85 104.07L327.33 104.65L328.78 105.3L330.2 105.99L331.59 106.74L332.95 107.54L334.27 108.39L335.56 109.29L336.81 110.23L338.02 111.22L339.19 112.26L340.32 113.34L341.41 114.46L342.45 115.62L343.45 116.82L344.41 118.06L345.31 119.33L346.17 120.65L346.98 121.99L347.73 123.37L348.44 124.78L349.08 126.22L349.68 127.68L350.21 129.18L350.69 130.7L351.11 132.25L351.47 133.82L351.76 135.41L352 137.02L352.16 138.66L352.26 140.31L352.3 141.98L352.26 143.65L352.16 145.3L352 146.93L351.76 148.55L351.47 150.14L351.11 151.71L350.69 153.26L350.21 154.78L349.68 156.27L349.08 157.74L348.44 159.18L348 160.05L347.72 160.05L329.95 185.61L311.42 212.26L292.9 185.61L275.13 160.05L274.84 160.05L274.41 159.18L273.76 157.74L273.17 156.27L272.63 154.78L272.15 153.26L271.74 151.71L271.38 150.14L271.08 148.55L270.85 146.93L270.68 145.3L270.58 143.65L270.55 141.98L270.58 140.31L270.68 138.66L270.85 137.02L271.08 135.41L271.38 133.82L271.74 132.25L272.15 130.7L272.63 129.18L273.17 127.68L273.76 126.22L274.41 124.78L275.11 123.37L275.87 121.99L276.67 120.65L277.53 119.33L278.44 118.06L279.39 116.82L280.39 115.62L281.44 114.46L282.52 113.34L283.66 112.26L284.83 111.22L286.04 110.23L287.29 109.29L288.57 108.39L289.9 107.54L291.25 106.74L292.64 105.99L294.07 105.3L295.52 104.65L297 104.07L298.51 103.53L300.04 103.06L301.6 102.65L303.19 102.29L304.8 102L306.42 101.77L308.07 101.6L309.74 101.5L311.42 101.47L313.11 101.5L314.77 101.6ZM308.71 131.12L307.45 131.56L306.27 132.16L305.18 132.89L304.2 133.75L303.33 134.74L302.6 135.82L302.01 137L301.57 138.26L301.3 139.59L301.2 140.98L301.3 142.36L301.57 143.69L302.01 144.95L302.6 146.13L303.33 147.22L304.2 148.2L305.18 149.07L306.27 149.8L307.45 150.39L308.71 150.83L310.04 151.1L311.42 151.2L312.81 151.1L314.14 150.83L315.4 150.39L316.58 149.8L317.67 149.07L318.65 148.2L319.51 147.22L320.25 146.13L320.84 144.95L321.28 143.69L321.55 142.36L321.64 140.98L321.55 139.59L321.28 138.26L320.84 137L320.25 135.82L319.51 134.74L318.65 133.75L317.67 132.89L316.58 132.16L315.4 131.56L314.14 131.12L312.81 130.85L311.42 130.76L310.04 130.85L308.71 131.12Z" id="advBMF0qq"></path></defs><g><g><use xlink:href="#bCqb0UIYV" opacity="1" fill="#ffbb0b" fill-opacity="1"></use></g><g><use xlink:href="#advBMF0qq" opacity="1" fill="#000000" fill-opacity="1"></use></g></g></svg>