<?xml version="1.0" encoding="UTF-8" standalone="no"?>
<!DOCTYPE svg PUBLIC "-//W3C//DTD SVG 1.1//EN" "http://www.w3.org/Graphics/SVG/1.1/DTD/svg11.dtd">
<svg version="1.1" xmlns="http://www.w3.org/2000/svg" xmlns:xlink="http://www.w3.org/1999/xlink" preserveAspectRatio="xMidYMid meet" viewBox="210.42230804418728 52.21167883211706 203.99999999999966 203.99999999999977" width="200" height="200"><defs><path d="M211.42 153.21C211.42 98.02 256.23 53.21 311.42 53.21C366.61 53.21 411.42 98.02 411.42 153.21C411.42 208.4 366.61 253.21 311.42 253.21C256.23 253.21 211.42 208.4 211.42 153.21Z" id="d2d6tf5qmP"></path><path d="M258.3 187.67L275.1 185.74L275.15 189.04L275.2 192.35L258.36 190.97L241.51 189.59L258.3 187.67Z" id="a5IzOt7f1"></path><path d="M260.87 153.21C260.87 125.31 283.52 102.66 311.42 102.66C339.32 102.66 361.97 125.31 361.97 153.21C361.97 181.11 339.32 203.76 311.42 203.76C283.52 203.76 260.87 181.11 260.87 153.21Z" id="cuYByUyan"></path><path d="M314.74 112.91L316.37 113.07L317.98 113.3L319.57 113.6L321.14 113.95L322.68 114.36L324.2 114.84L325.69 115.37L327.16 115.95L328.59 116.6L330 117.29L331.37 118.04L332.72 118.84L334.02 119.68L335.3 120.58L336.53 121.52L337.73 122.51L338.89 123.55L340.01 124.62L341.09 125.74L342.12 126.9L342.55 127.42L333.06 134.29L332.67 133.86L331.73 132.93L330.76 132.03L329.76 131.18L328.73 130.36L327.66 129.58L326.57 128.85L325.45 128.16L324.3 127.51L323.12 126.91L321.92 126.35L320.7 125.84L319.45 125.38L318.18 124.97L316.89 124.62L315.58 124.31L314.25 124.06L312.9 123.86L311.54 123.71L310.16 123.63L308.77 123.6L307.38 123.63L306 123.71L304.64 123.86L303.29 124.06L301.96 124.31L300.65 124.62L299.36 124.97L298.09 125.38L296.85 125.84L295.62 126.35L294.42 126.91L293.25 127.51L292.1 128.16L290.97 128.85L289.88 129.58L288.82 130.36L287.78 131.18L286.78 132.03L285.81 132.93L284.88 133.86L283.98 134.83L283.11 135.83L282.29 136.87L281.5 137.94L280.75 139.05L280.04 140.18L279.37 141.34L278.75 142.53L278.17 143.75L277.63 144.99L277.14 146.26L276.7 147.56L276.3 148.87L275.96 150.21L275.66 151.57L275.42 152.94L275.23 154.34L275.09 155.75L275 157.18L274.98 158.62L275 160.07L275.09 161.49L275.23 162.91L275.42 164.3L275.66 165.68L275.96 167.04L276.3 168.37L276.7 169.69L277.14 170.98L277.63 172.25L278.17 173.5L278.75 174.71L279.37 175.91L280.04 177.07L280.75 178.2L281.5 179.3L282.29 180.37L283.11 181.41L283.98 182.42L284.88 183.39L285.81 184.32L286.78 185.21L287.28 185.64L286.31 184.9L285.11 183.91L283.95 182.88L282.83 181.8L281.76 180.68L280.72 179.52L279.73 178.32L278.79 177.09L277.89 175.81L277.05 174.51L276.25 173.16L275.5 171.79L274.81 170.38L274.16 168.95L273.58 167.48L273.05 165.99L272.57 164.47L272.16 162.92L271.81 161.36L271.51 159.77L271.28 158.16L271.12 156.53L271.02 154.88L270.98 153.21L271.02 151.55L271.12 149.9L271.28 148.27L271.51 146.66L271.81 145.07L272.16 143.5L272.57 141.95L273.05 140.44L273.58 138.94L274.16 137.48L274.81 136.04L275.5 134.63L276.25 133.26L277.05 131.92L277.89 130.61L278.79 129.34L279.73 128.1L280.72 126.9L281.76 125.74L282.83 124.62L283.95 123.55L285.11 122.51L286.31 121.52L287.55 120.58L288.82 119.68L290.13 118.84L291.47 118.04L292.85 117.29L294.25 116.6L295.69 115.95L297.15 115.37L298.65 114.84L300.17 114.36L301.71 113.95L303.28 113.6L304.87 113.3L306.48 113.07L308.11 112.91L309.76 112.81L311.42 112.77L313.09 112.81L314.74 112.91Z" id="g1SRs1g6qO"></path><path d="M307.09 154.26C307.09 151.47 309.36 149.21 312.15 149.21C314.94 149.21 317.2 151.47 317.2 154.26C317.2 157.05 314.94 159.32 312.15 159.32C309.36 159.32 307.09 157.05 307.09 154.26Z" id="a1bSkKUiVt"></path><path d="M332.18 142.93L317.45 154.86L315.6 152.12L313.75 149.39L330.33 140.19L346.91 131L332.18 142.93Z" id="a3gbCZfOm"></path><path d="M243.19 169.97L264.35 167.87L264.42 171.17L264.49 174.47L243.26 173.27L222.02 172.06L243.19 169.97Z" id="j34Gp34eZb"></path><path d="M239.57 151.3L260.74 149.21L260.81 152.51L260.87 155.81L239.64 154.6L218.41 153.4L239.57 151.3Z" id="ajolDgOei"></path><path d="M243.19 133.09L264.35 131L264.42 134.3L264.49 137.6L243.26 136.39L222.02 135.19L243.19 133.09Z" id="cq4Vvz11g"></path><path d="M258.29 117.39L275.08 115.39L275.15 118.69L275.22 121.99L258.36 120.69L241.51 119.4L258.29 117.39Z" id="c7SCDZTHzm"></path><path d="M275.5 202.86L311.28 200.46L311.35 203.76L311.42 207.06L275.57 206.16L239.71 205.26L275.5 202.86Z" id="b41iqFO3wJ"></path></defs><g><g><use xlink:href="#d2d6tf5qmP" opacity="1" fill="#ffbb0b" fill-opacity="1"></use></g><g><use xlink:href="#a5IzOt7f1" opacity="1" fill="#000000" fill-opacity="1"></use></g><g><g><use xlink:href="#cuYByUyan" opacity="1" fill-opacity="0" stroke="#000000" stroke-width="6" stroke-opacity="1"></use></g></g><g><use xlink:href="#g1SRs1g6qO" opacity="1" fill="#000000" fill-opacity="1"></use></g><g><g><use xlink:href="#a1bSkKUiVt" opacity="1" fill-opacity="0" stroke="#000000" stroke-width="6" stroke-opacity="1"></use></g></g><g><use xlink:href="#a3gbCZfOm" opacity="1" fill="#000000" fill-opacity="1"></use></g><g><use xlink:href="#j34Gp34eZb" opacity="1" fill="#000000" fill-opacity="1"></use></g><g><use xlink:href="#ajolDgOei" opacity="1" fill="#000000" fill-opacity="1"></use></g><g><use xlink:href="#cq4Vvz11g" opacity="1" fill="#000000" fill-opacity="1"></use></g><g><use xlink:href="#c7SCDZTHzm" opacity="1" fill="#000000" fill-opacity="1"></use></g><g><use xlink:href="#b41iqFO3wJ" opacity="1" fill="#000000" fill-opacity="1"></use></g></g></svg>