<?xml version="1.0" encoding="UTF-8" standalone="no"?>
<!DOCTYPE svg PUBLIC "-//W3C//DTD SVG 1.1//EN" "http://www.w3.org/Graphics/SVG/1.1/DTD/svg11.dtd">
<svg version="1.1" xmlns="http://www.w3.org/2000/svg" xmlns:xlink="http://www.w3.org/1999/xlink" preserveAspectRatio="xMidYMid meet" viewBox="210.42230804418728 52.21167883211706 203.99999999999966 203.99999999999977" width="200" height="200"><defs><path d="M211.42 153.21C211.42 98.02 256.23 53.21 311.42 53.21C366.61 53.21 411.42 98.02 411.42 153.21C411.42 208.4 366.61 253.21 311.42 253.21C256.23 253.21 211.42 208.4 211.42 153.21Z" id="bCqb0UIYV"></path><path d="M291.14 91.15L291.76 91.3L292.37 91.49L292.97 91.72L293.56 91.98L294.13 92.29L294.68 92.64L295.21 93.02L295.72 93.44L296.21 93.9L296.67 94.4L297.09 94.93L309.62 111.64L310.01 112.2L310.36 112.78L310.67 113.37L310.93 113.98L311.15 114.59L311.33 115.22L311.46 115.85L311.56 116.49L311.61 117.13L311.62 117.77L311.59 118.41L311.52 119.05L311.41 119.68L311.26 120.3L311.07 120.91L310.84 121.51L310.57 122.1L310.26 122.67L309.92 123.22L309.53 123.75L309.11 124.26L308.65 124.75L308.15 125.21L307.62 125.64L301.43 130.28L300.87 130.67L300.29 131.02L299.7 131.32L299.09 131.59L298.47 131.81L298.18 131.89L298.11 131.96L297.85 132.14L297.55 132.28L297.25 132.42L296.98 132.58L296.75 132.79L296.54 133.02L296.38 133.28L296.24 133.58L296.14 133.91L296.07 134.27L296.04 134.66L296.04 135.09L296.07 135.55L296.14 136.03L296.24 136.55L296.37 137.11L296.54 137.69L296.74 138.31L296.97 138.96L297.24 139.64L297.54 140.35L297.88 141.1L298.25 141.87L298.65 142.68L299.08 143.52L299.55 144.39L300.05 145.3L300.59 146.23L301.16 147.2L301.76 148.2L302.4 149.24L303.07 150.3L303.78 151.4L304.51 152.52L304.59 152.65L305.23 153.09L306.1 154.56L306.96 155.99L307.69 157.2L307.8 157.36L308.7 158.64L309.64 159.96L310.62 161.32L311.62 162.7L311.84 163.79L312.49 164.78L313.22 165.86L313.93 166.9L314.62 167.89L315.3 168.85L315.96 169.75L316.61 170.62L317.24 171.44L317.85 172.22L318.45 172.95L319.03 173.64L319.6 174.29L320.15 174.89L320.68 175.45L321.2 175.96L321.7 176.44L322.19 176.87L322.66 177.25L323.11 177.59L323.55 177.89L323.98 178.15L324.38 178.36L324.77 178.53L325.15 178.65L325.5 178.73L325.85 178.77L326.17 178.77L326.48 178.72L326.78 178.62L327.05 178.49L327.32 178.31L327.56 178.09L327.81 177.87L328.07 177.7L328.17 177.67L328.36 177.43L328.81 176.95L329.29 176.5L329.81 176.07L330.36 175.68L330.94 175.32L337.66 171.49L338.26 171.17L338.88 170.89L339.51 170.66L340.14 170.48L340.78 170.34L341.43 170.24L342.07 170.18L342.72 170.17L343.36 170.2L344 170.27L344.63 170.38L345.25 170.52L345.86 170.71L346.46 170.94L347.05 171.2L347.61 171.51L348.16 171.85L348.69 172.22L349.19 172.63L349.67 173.08L350.13 173.56L350.55 174.08L350.94 174.63L351.3 175.21L361.65 193.34L361.97 193.95L362.24 194.57L362.47 195.19L362.66 195.83L362.8 196.47L362.9 197.11L362.95 197.76L362.97 198.4L362.94 199.05L362.87 199.68L362.76 200.31L362.61 200.94L362.42 201.55L362.2 202.15L361.93 202.73L361.63 203.3L361.29 203.85L360.91 204.37L360.5 204.88L360.05 205.36L359.57 205.81L359.06 206.23L358.51 206.63L357.92 206.99L351.2 210.82L350.64 211.12L350.78 211.4L349.38 211.64L349.35 211.64L348.72 211.83L348.08 211.97L347.43 212.07L346.79 212.12L346.14 212.14L345.5 212.11L345.19 212.08L343.9 212.14L342.19 212.14L340.49 212.08L338.79 211.95L337.11 211.75L335.42 211.48L333.74 211.13L332.07 210.72L330.4 210.24L328.74 209.69L327.08 209.06L325.43 208.37L323.79 207.61L322.15 206.77L320.51 205.87L318.88 204.89L317.26 203.85L315.64 202.73L314.03 201.55L312.42 200.29L310.82 198.97L309.23 197.57L307.64 196.11L306.05 194.57L304.47 192.97L302.9 191.29L301.33 189.54L299.77 187.73L298.21 185.84L296.66 183.89L295.11 181.86L293.57 179.76L292.04 177.59L290.51 175.36L288.99 173.05L287.47 170.67L286.93 169.81L286.85 169.68L285.34 167.37L283.89 165.07L282.51 162.8L281.2 160.56L279.95 158.33L278.77 156.13L277.66 153.95L276.61 151.8L275.64 149.66L274.72 147.55L273.88 145.47L273.1 143.4L272.38 141.36L271.74 139.34L271.16 137.35L270.64 135.37L270.2 133.42L269.82 131.5L269.5 129.59L269.26 127.71L269.08 125.85L268.96 124.01L268.92 122.2L268.94 120.41L269.02 118.64L269.18 116.9L269.39 115.18L269.68 113.48L270.03 111.8L270.45 110.15L270.94 108.52L271.49 106.91L272.11 105.32L272.8 103.76L273.37 102.59L273.46 102.3L273.69 101.7L273.96 101.11L274.26 100.54L274.61 99.99L274.99 99.46L275.41 98.95L275.43 98.93L276.2 97.74L276.41 97.98L276.91 97.58L283.09 92.93L283.66 92.54L284.24 92.19L284.83 91.89L285.44 91.63L286.05 91.41L286.68 91.23L287.31 91.09L287.95 91L288.59 90.95L289.23 90.93L289.87 90.96L290.51 91.03L290.51 91.03L291.14 91.15Z" id="a2WVQWjTlv"></path></defs><g><g><use xlink:href="#bCqb0UIYV" opacity="1" fill="#ffbb0b" fill-opacity="1"></use></g><g><use xlink:href="#a2WVQWjTlv" opacity="1" fill="#000000" fill-opacity="1"></use></g></g></svg>