<?xml version="1.0" encoding="UTF-8" standalone="no"?>
<!DOCTYPE svg PUBLIC "-//W3C//DTD SVG 1.1//EN" "http://www.w3.org/Graphics/SVG/1.1/DTD/svg11.dtd">
<svg version="1.1" xmlns="http://www.w3.org/2000/svg" xmlns:xlink="http://www.w3.org/1999/xlink" preserveAspectRatio="xMidYMid meet" viewBox="149.15693430656938 403.6109343065692 36.29237631792381 67.14735541202089" width="200" height="394.1"><defs><path d="M150.66 436.42L182.45 436.42L182.45 467.76L150.66 467.76L150.66 436.42Z" id="bjUAK8j7C"></path><path d="M178.63 424.45L177.44 424.87L176.3 425.4L175.23 426.03L174.21 426.76L173.27 427.57L172.4 428.47L171.61 429.45L170.91 430.49L170.3 431.61L169.78 432.78L169.38 434.01L169.08 435.29L168.89 436.6L168.83 437.96L168.89 439.31L169.03 440.26L169.03 467.74L168.95 467.7L167.84 467.14L166.76 466.53L165.71 465.88L164.68 465.19L163.68 464.46L162.71 463.7L161.76 462.89L160.85 462.05L159.97 461.18L159.13 460.27L158.31 459.33L157.54 458.36L156.79 457.35L156.09 456.32L155.42 455.25L154.8 454.16L154.21 453.05L153.66 451.9L153.16 450.74L152.7 449.55L152.28 448.34L151.91 447.1L151.58 445.85L151.3 444.57L151.07 443.28L150.89 441.97L150.76 440.65L150.68 439.31L150.66 437.96L150.68 436.6L150.76 435.27L150.89 433.94L151.07 432.63L151.3 431.34L151.58 430.07L151.91 428.81L152.28 427.58L152.7 426.37L153.16 425.18L153.66 424.01L154.21 422.87L154.8 421.75L155.42 420.66L156.09 419.6L156.79 418.56L157.54 417.56L158.31 416.59L159.13 415.64L159.97 414.74L160.85 413.86L161.76 413.02L162.71 412.22L163.68 411.45L164.68 410.72L165.71 410.04L166.76 409.39L167.84 408.78L168.95 408.21L170.08 407.69L171.23 407.22L172.4 406.79L173.6 406.4L174.81 406.07L176.05 405.78L177.3 405.54L178.56 405.35L179.84 405.22L181.14 405.14L182.45 405.11L182.45 423.89L181.14 423.95L179.86 424.14L179.86 424.14L178.63 424.45Z" id="e3baL5sycK"></path></defs><g><g><use xlink:href="#bjUAK8j7C" opacity="1" fill="#ffbb0b" fill-opacity="1"></use></g><g><use xlink:href="#e3baL5sycK" opacity="1" fill="#ffbb0b" fill-opacity="1"></use></g></g></svg>