<?xml version="1.0" encoding="UTF-8" standalone="no"?>
<!DOCTYPE svg PUBLIC "-//W3C//DTD SVG 1.1//EN" "http://www.w3.org/Graphics/SVG/1.1/DTD/svg11.dtd">
<svg version="1.1" xmlns="http://www.w3.org/2000/svg" xmlns:xlink="http://www.w3.org/1999/xlink" preserveAspectRatio="xMidYMid meet" viewBox="94.53199828792162 337.20502361528514 200.07843137254935 200.07843137254923" width="200" height="200"><defs><path d="M193.57 338.21C247.68 338.21 291.61 382.14 291.61 436.24C291.61 490.35 247.68 534.28 193.57 534.28C139.46 534.28 95.53 490.35 95.53 436.24C95.53 382.14 139.46 338.21 193.57 338.21Z" id="b1jV6zlcU2"></path><path d="M229.79 382.23C229.79 405.51 229.79 466.99 229.79 490.26C229.79 494.87 226.06 498.59 221.46 498.59C208.04 498.59 176.12 498.59 162.7 498.59C158.09 498.59 154.37 494.87 154.37 490.26C154.37 466.99 154.37 405.51 154.37 382.23C154.37 377.63 158.09 373.9 162.7 373.9C176.12 373.9 208.04 373.9 221.46 373.9C226.06 373.9 229.79 377.63 229.79 382.23Z" id="a40BRfCEA9"></path><path d="M235.12 385.46L235.12 480.96L159.68 480.96L159.68 385.46L235.12 385.46Z" id="nsBZg3HQE"></path><path d="M204.42 380.71C204.42 380.97 204.42 381.07 204.42 381.32C204.42 381.7 204.12 382 203.75 382C198.88 382 184.96 382 180.09 382C179.72 382 179.42 381.7 179.42 381.32C179.42 381.07 179.42 380.97 179.42 380.71C179.42 380.35 179.72 380.05 180.09 380.05C184.96 380.05 198.88 380.05 203.75 380.05C204.12 380.05 204.42 380.35 204.42 380.71Z" id="a3F6Z7p9Mn"></path><path d="M235.8 415.55L235.8 464.22L128.4 464.22L128.4 415.55L235.8 415.55Z" id="duQstXumK"></path><path d="M209.66 382.8C208.44 382.8 207.45 381.81 207.45 380.59C207.45 379.37 208.44 378.38 209.66 378.38C210.88 378.38 211.87 379.37 211.87 380.59C211.87 381.81 210.88 382.8 209.66 382.8Z" id="kFfgvaGnJ"></path><path d="M191.77 493.63C189.42 493.63 187.51 491.73 187.51 489.38C187.51 487.03 189.42 485.12 191.77 485.12C194.12 485.12 196.03 487.03 196.03 489.38C196.03 491.73 194.12 493.63 191.77 493.63Z" id="bvEUSRJzP"></path><path d="M235.8 431.83C235.8 439.89 235.8 458.12 235.8 466.18C235.8 469.46 233.14 472.12 229.86 472.12C227.83 472.12 227.72 472.12 225.69 472.12C222.41 472.12 219.75 469.46 219.75 466.18C219.75 458.12 219.75 439.89 219.75 431.83C219.75 428.56 222.41 425.89 225.69 425.89C227.72 425.89 227.83 425.89 229.86 425.89C233.14 425.89 235.8 428.56 235.8 431.83Z" id="a8vNv9Qwu"></path><path d="M227.78 474.56C223.34 474.56 219.75 469.92 219.75 464.22C219.75 458.51 223.34 453.87 227.78 453.87C232.2 453.87 235.8 458.51 235.8 464.22C235.8 469.92 232.2 474.56 227.78 474.56Z" id="f25RKEUgt8"></path><path d="M236.62 449.62C234.7 449.62 233.15 447.43 233.15 444.75C233.15 442.07 234.7 439.88 236.62 439.88C238.53 439.88 240.09 442.07 240.09 444.75C240.09 447.43 238.53 449.62 236.62 449.62Z" id="a14610dQWk"></path><path d="M218.56 449.62C216.64 449.62 215.09 447.43 215.09 444.75C215.09 442.07 216.64 439.88 218.56 439.88C220.48 439.88 222.03 442.07 222.03 444.75C222.03 447.43 220.48 449.62 218.56 449.62Z" id="b178ufLmBe"></path><path d="M225.03 464.22C224.96 464.22 225.08 464.22 225 464.22C224.82 464.22 224.67 464.07 224.67 463.87C224.68 461.45 224.68 454.48 224.68 452.05C224.68 451.87 224.83 451.72 225.03 451.72C225.09 451.72 224.98 451.72 225.05 451.72C225.23 451.72 225.38 451.87 225.38 452.05C225.38 454.48 225.37 461.45 225.37 463.88C225.37 464.07 225.22 464.22 225.03 464.22Z" id="a3oJ6rpGI3"></path><path d="M227.41 464.22C227.33 464.22 227.45 464.22 227.38 464.22C227.19 464.22 227.04 464.07 227.05 463.87C227.05 461.45 227.06 454.48 227.07 452.05C227.07 451.87 227.22 451.72 227.4 451.72C227.47 451.72 227.35 451.72 227.43 451.72C227.61 451.72 227.76 451.87 227.76 452.05C227.76 454.48 227.74 461.45 227.74 463.88C227.74 464.07 227.59 464.22 227.41 464.22Z" id="b3FDYHdONE"></path><path d="M229.27 392.44L229.27 430.15L225.91 430.15L225.91 392.44L229.27 392.44Z" id="aXNJqEhqn"></path><path d="M159.25 459.95L159.28 459.94L159.32 459.93L159.36 459.92L159.39 459.91L159.42 459.89L159.46 459.87L159.48 459.86L159.52 459.84L159.55 459.82L159.57 459.79L159.6 459.77L159.63 459.74L159.66 459.72L159.68 459.68L159.71 459.66L159.73 459.62L159.75 459.59L159.77 459.56L159.8 459.52L159.82 459.48L159.84 459.44L159.86 459.4L159.88 459.37L159.9 459.32L159.92 459.27L159.94 459.23L159.96 459.19L159.97 459.14L159.99 459.1L160.01 459.05L160.02 459L160.05 458.96L160.07 458.91L160.08 458.86L160.1 458.81L160.12 458.76L160.13 458.7L161 455.45L161.27 455.36L161.87 455.15L162.47 454.91L163.04 454.65L163.61 454.37L163.66 454.35L166.58 456.04L166.63 456.07L166.68 456.09L166.72 456.12L166.77 456.14L166.82 456.16L166.87 456.18L166.92 456.2L166.96 456.22L167.01 456.24L167.05 456.27L167.1 456.28L167.14 456.3L167.18 456.32L167.22 456.33L167.27 456.35L167.32 456.36L167.36 456.37L167.4 456.38L167.44 456.39L167.48 456.4L167.52 456.41L167.56 456.42L167.6 456.42L167.63 456.42L167.67 456.42L167.72 456.42L167.75 456.42L167.78 456.42L167.82 456.41L167.86 456.4L167.89 456.39L167.92 456.38L167.96 456.37L167.99 456.36L168.02 456.34L168.06 456.32L168.09 456.3L168.12 456.27L168.15 456.25L168.18 456.22L172.44 451.96L172.47 451.93L172.49 451.9L172.52 451.87L172.54 451.83L172.56 451.81L172.57 451.77L172.59 451.73L172.61 451.7L172.62 451.67L172.63 451.63L172.64 451.59L172.64 451.56L172.65 451.52L172.65 451.48L172.66 451.44L172.66 451.4L172.65 451.37L172.65 451.32L172.64 451.28L172.64 451.24L172.63 451.2L172.62 451.16L172.61 451.12L172.6 451.07L172.58 451.03L172.57 450.99L172.56 450.94L172.54 450.9L172.52 450.86L172.5 450.82L172.48 450.77L172.47 450.72L172.44 450.68L172.42 450.63L172.39 450.59L172.37 450.54L172.34 450.5L172.32 450.46L172.29 450.41L172.26 450.37L170.57 447.44L170.61 447.38L170.88 446.81L171.14 446.23L171.38 445.64L171.59 445.04L171.67 444.77L174.93 443.9L174.98 443.88L175.04 443.87L175.09 443.86L175.14 443.85L175.19 443.83L175.23 443.82L175.28 443.8L175.33 443.78L175.37 443.77L175.42 443.75L175.47 443.73L175.51 443.72L175.55 443.7L175.59 443.67L175.63 443.66L175.67 443.63L175.72 443.62L175.75 443.59L175.78 443.57L175.82 443.54L175.86 443.52L175.89 443.49L175.92 443.47L175.95 443.44L175.97 443.42L176 443.38L176.02 443.36L176.05 443.32L176.07 443.29L176.09 443.27L176.11 443.23L176.12 443.2L176.14 443.17L176.15 443.12L176.17 443.09L176.17 443.05L176.18 443.02L176.18 442.97L176.19 442.93L176.19 442.89L176.19 436.87L176.19 436.83L176.18 436.79L176.18 436.76L176.17 436.72L176.17 436.68L176.15 436.64L176.14 436.61L176.12 436.57L176.11 436.54L176.09 436.52L176.07 436.48L176.05 436.46L176.02 436.42L176 436.4L175.97 436.37L175.95 436.34L175.92 436.32L175.89 436.29L175.86 436.27L175.82 436.25L175.78 436.22L175.75 436.2L175.72 436.18L175.67 436.16L175.63 436.14L175.59 436.12L175.55 436.1L175.51 436.08L175.47 436.06L175.42 436.04L175.37 436.02L175.33 436.01L175.28 435.99L175.23 435.97L175.19 435.96L175.14 435.94L175.09 435.92L175.04 435.9L174.98 435.88L174.93 435.87L171.67 435L171.59 434.73L171.38 434.12L171.14 433.53L170.88 432.96L170.61 432.39L170.57 432.33L172.26 429.41L172.29 429.37L172.32 429.32L172.34 429.28L172.37 429.23L172.39 429.19L172.42 429.15L172.44 429.1L172.47 429.06L172.48 429.01L172.5 428.96L172.52 428.92L172.54 428.88L172.56 428.83L172.57 428.79L172.58 428.75L172.6 428.71L172.61 428.66L172.62 428.62L172.63 428.58L172.64 428.54L172.64 428.5L172.65 428.46L172.65 428.41L172.66 428.37L172.66 428.34L172.65 428.3L172.65 428.26L172.64 428.22L172.64 428.18L172.63 428.15L172.62 428.11L172.61 428.07L172.59 428.04L172.57 428.01L172.56 427.97L172.54 427.94L172.52 427.91L172.49 427.88L172.47 427.85L172.44 427.81L168.18 423.56L168.15 423.53L168.12 423.51L168.09 423.48L168.06 423.46L168.02 423.44L167.99 423.42L167.96 423.41L167.92 423.4L167.89 423.38L167.86 423.37L167.82 423.36L167.78 423.36L167.75 423.36L167.72 423.36L167.67 423.36L167.63 423.36L167.6 423.36L167.56 423.36L167.52 423.37L167.48 423.38L167.44 423.39L167.4 423.4L167.36 423.41L167.32 423.42L167.27 423.43L167.22 423.45L167.18 423.46L167.14 423.48L167.1 423.5L167.05 423.51L167.01 423.53L166.96 423.56L166.92 423.57L166.87 423.6L166.82 423.61L166.77 423.64L166.72 423.66L166.68 423.69L166.63 423.71L166.58 423.74L163.67 425.42L163.61 425.39L163.04 425.11L162.47 424.86L161.87 424.61L161.27 424.41L161 424.32L160.13 421.06L160.12 421.01L160.1 420.96L160.08 420.91L160.07 420.86L160.05 420.81L160.02 420.76L160.01 420.71L159.99 420.66L159.97 420.62L159.96 420.57L159.94 420.53L159.92 420.49L159.9 420.45L159.88 420.41L159.86 420.36L159.84 420.32L159.82 420.28L159.8 420.25L159.77 420.21L159.75 420.17L159.73 420.14L159.71 420.11L159.68 420.08L159.66 420.05L159.63 420.02L159.6 420L159.57 419.97L159.55 419.95L159.52 419.93L159.48 419.91L159.46 419.89L159.42 419.87L159.39 419.86L159.36 419.85L159.32 419.83L159.28 419.82L159.25 419.81L159.21 419.81L159.17 419.81L159.12 419.81L153.11 419.81L153.07 419.81L153.02 419.81L152.98 419.81L152.95 419.82L152.91 419.83L152.87 419.85L152.84 419.86L152.8 419.87L152.77 419.89L152.74 419.91L152.71 419.93L152.67 419.95L152.64 419.97L152.62 420L152.58 420.02L152.56 420.05L152.53 420.08L152.51 420.11L152.48 420.14L152.46 420.17L152.43 420.21L152.41 420.25L152.38 420.28L152.37 420.32L152.34 420.36L152.32 420.41L152.3 420.45L152.28 420.49L152.27 420.53L152.25 420.57L152.23 420.62L152.22 420.66L152.2 420.71L152.18 420.76L152.17 420.81L152.16 420.86L152.14 420.91L152.12 420.96L152.12 421.01L152.1 421.06L151.23 424.32L150.96 424.41L150.36 424.61L149.77 424.86L149.19 425.11L148.62 425.39L148.55 425.43L145.65 423.75L145.6 423.72L145.56 423.7L145.52 423.66L145.47 423.64L145.42 423.61L145.37 423.59L145.33 423.57L145.29 423.55L145.24 423.53L145.2 423.51L145.16 423.49L145.11 423.47L145.07 423.46L145.02 423.44L144.98 423.42L144.94 423.41L144.9 423.4L144.86 423.39L144.82 423.38L144.77 423.37L144.73 423.36L144.69 423.36L144.65 423.36L144.61 423.36L144.57 423.36L144.53 423.36L144.49 423.36L144.46 423.36L144.42 423.37L144.38 423.38L144.35 423.39L144.31 423.41L144.27 423.41L144.24 423.43L144.21 423.45L144.17 423.47L144.14 423.49L144.11 423.51L144.08 423.54L144.05 423.57L139.79 427.83L139.77 427.86L139.74 427.89L139.72 427.92L139.69 427.95L139.67 427.98L139.66 428.01L139.64 428.05L139.63 428.08L139.62 428.11L139.61 428.16L139.6 428.19L139.6 428.22L139.59 428.26L139.59 428.3L139.59 428.34L139.59 428.37L139.59 428.41L139.6 428.45L139.61 428.49L139.61 428.53L139.62 428.57L139.63 428.61L139.64 428.66L139.65 428.7L139.67 428.74L139.68 428.78L139.7 428.82L139.72 428.87L139.73 428.91L139.75 428.96L139.77 429.01L139.79 429.05L139.81 429.1L139.83 429.14L139.85 429.19L139.87 429.23L139.9 429.28L139.92 429.33L139.95 429.38L139.97 429.42L141.66 432.34L141.62 432.39L141.35 432.96L141.09 433.53L140.85 434.12L140.64 434.73L140.56 435L137.3 435.87L137.25 435.88L137.19 435.9L137.14 435.92L137.09 435.94L137.04 435.96L137 435.97L136.95 435.99L136.9 436.01L136.86 436.02L136.81 436.04L136.77 436.06L136.72 436.08L136.68 436.1L136.64 436.12L136.6 436.14L136.56 436.16L136.52 436.18L136.48 436.2L136.45 436.22L136.41 436.25L136.37 436.27L136.35 436.29L136.32 436.32L136.28 436.34L136.26 436.37L136.23 436.4L136.21 436.42L136.18 436.46L136.16 436.48L136.14 436.52L136.12 436.54L136.11 436.57L136.09 436.61L136.08 436.64L136.07 436.68L136.06 436.72L136.05 436.76L136.05 436.79L136.04 436.83L136.04 436.87L136.04 442.89L136.04 442.93L136.05 442.97L136.05 443.02L136.06 443.05L136.07 443.09L136.08 443.12L136.09 443.17L136.11 443.2L136.12 443.23L136.14 443.27L136.16 443.29L136.18 443.32L136.21 443.36L136.23 443.38L136.26 443.42L136.28 443.44L136.32 443.47L136.35 443.49L136.37 443.52L136.41 443.54L136.45 443.57L136.48 443.59L136.52 443.62L136.56 443.63L136.6 443.66L136.64 443.67L136.68 443.7L136.72 443.72L136.77 443.73L136.81 443.75L136.86 443.77L136.9 443.78L136.95 443.8L137 443.82L137.04 443.83L137.09 443.85L137.14 443.86L137.19 443.87L137.25 443.88L137.3 443.9L140.56 444.77L140.64 445.04L140.85 445.64L141.09 446.23L141.35 446.81L141.62 447.38L141.66 447.43L139.97 450.35L139.95 450.4L139.92 450.45L139.9 450.5L139.87 450.54L139.85 450.59L139.83 450.64L139.81 450.68L139.79 450.73L139.77 450.77L139.75 450.82L139.73 450.87L139.72 450.91L139.7 450.95L139.68 451L139.67 451.04L139.65 451.08L139.64 451.12L139.63 451.17L139.62 451.21L139.61 451.25L139.61 451.28L139.6 451.32L139.59 451.37L139.59 451.41L139.59 451.44L139.59 451.48L139.59 451.52L139.6 451.55L139.6 451.59L139.61 451.62L139.62 451.66L139.63 451.69L139.64 451.72L139.66 451.76L139.67 451.79L139.69 451.82L139.72 451.86L139.74 451.89L139.77 451.92L139.79 451.95L144.05 456.21L144.08 456.23L144.11 456.26L144.14 456.28L144.17 456.31L144.21 456.32L144.24 456.34L144.27 456.36L144.31 456.37L144.35 456.38L144.38 456.4L144.42 456.41L144.46 456.42L144.49 456.42L144.53 456.42L144.57 456.42L144.61 456.42L144.65 456.42L144.69 456.42L144.73 456.42L144.77 456.41L144.82 456.4L144.86 456.39L144.9 456.38L144.94 456.37L144.98 456.36L145.02 456.34L145.07 456.32L145.11 456.31L145.16 456.29L145.2 456.27L145.24 456.25L145.29 456.23L145.33 456.21L145.37 456.18L145.42 456.16L145.47 456.13L145.52 456.11L145.56 456.08L145.6 456.06L145.65 456.03L148.57 454.34L148.62 454.37L149.19 454.65L149.77 454.91L150.36 455.15L150.96 455.36L151.23 455.45L152.1 458.7L152.12 458.76L152.12 458.81L152.14 458.86L152.16 458.91L152.17 458.96L152.18 459L152.2 459.05L152.22 459.1L152.23 459.14L152.25 459.19L152.27 459.23L152.28 459.27L152.3 459.32L152.32 459.37L152.34 459.4L152.37 459.44L152.38 459.48L152.41 459.52L152.43 459.56L152.46 459.59L152.48 459.62L152.51 459.66L152.53 459.68L152.56 459.72L152.58 459.74L152.62 459.77L152.64 459.79L152.67 459.82L152.71 459.84L152.74 459.86L152.77 459.87L152.8 459.89L152.84 459.91L152.87 459.92L152.91 459.93L152.95 459.94L152.98 459.95L153.02 459.95L153.07 459.96L153.11 459.96L159.12 459.96L159.17 459.96L159.21 459.95L159.25 459.95ZM155.04 448.6L154.69 448.55L154.35 448.49L154.01 448.41L153.67 448.32L153.34 448.22L153.02 448.1L152.7 447.97L152.38 447.83L152.08 447.68L151.78 447.52L151.49 447.35L151.21 447.17L150.93 446.97L150.66 446.77L150.4 446.55L150.15 446.32L149.91 446.09L149.67 445.85L149.45 445.6L149.23 445.34L149.03 445.07L148.83 444.79L148.65 444.51L148.47 444.22L148.32 443.92L148.17 443.62L148.02 443.3L147.9 442.98L147.78 442.66L147.68 442.33L147.59 441.99L147.52 441.66L147.45 441.31L147.4 440.96L147.37 440.61L147.34 440.25L147.33 439.88L147.34 439.52L147.37 439.17L147.4 438.81L147.45 438.46L147.52 438.12L147.59 437.77L147.68 437.44L147.78 437.11L147.9 436.78L148.02 436.47L148.17 436.15L148.32 435.85L148.47 435.55L148.65 435.26L148.83 434.97L149.03 434.7L149.23 434.43L149.45 434.17L149.67 433.92L149.91 433.67L150.15 433.44L150.4 433.22L150.66 433L150.93 432.8L151.21 432.6L151.49 432.41L151.78 432.24L152.08 432.08L152.38 431.93L152.7 431.79L153.02 431.66L153.34 431.55L153.67 431.45L154.01 431.36L154.35 431.28L154.69 431.21L155.04 431.16L155.4 431.13L155.76 431.11L156.12 431.1L156.47 431.11L156.83 431.13L157.19 431.16L157.54 431.21L157.88 431.28L158.22 431.36L158.57 431.45L158.89 431.55L159.22 431.66L159.53 431.79L159.85 431.93L160.15 432.08L160.45 432.24L160.74 432.41L161.02 432.6L161.3 432.8L161.57 433L161.83 433.22L162.08 433.44L162.32 433.67L162.56 433.92L162.78 434.17L163 434.43L163.21 434.7L163.4 434.97L163.58 435.26L163.76 435.55L163.92 435.85L164.07 436.15L164.21 436.47L164.33 436.78L164.45 437.11L164.55 437.44L164.64 437.77L164.72 438.12L164.78 438.46L164.83 438.81L164.87 439.17L164.89 439.52L164.9 439.88L164.89 440.25L164.87 440.61L164.83 440.96L164.78 441.31L164.72 441.66L164.64 441.99L164.55 442.33L164.45 442.66L164.33 442.98L164.21 443.3L164.07 443.62L163.92 443.92L163.76 444.22L163.58 444.51L163.4 444.79L163.21 445.07L163 445.34L162.78 445.6L162.56 445.85L162.32 446.09L162.08 446.32L161.83 446.55L161.57 446.77L161.3 446.97L161.02 447.17L160.74 447.35L160.45 447.52L160.15 447.68L159.85 447.83L159.53 447.97L159.22 448.1L158.89 448.22L158.57 448.32L158.22 448.41L157.88 448.49L157.54 448.55L157.19 448.6L156.83 448.63L156.47 448.66L156.12 448.67L155.76 448.66L155.4 448.63L155.04 448.6Z" id="b43IGTIeba"></path><path d="M184.98 424.36L185.01 424.36L185.03 424.36L185.06 424.35L185.08 424.34L185.1 424.33L185.13 424.32L185.14 424.31L185.17 424.3L185.18 424.28L185.2 424.26L185.22 424.25L185.23 424.23L185.25 424.21L185.27 424.2L185.28 424.17L185.3 424.16L185.32 424.13L185.33 424.11L185.35 424.09L185.36 424.06L185.38 424.04L185.38 424.01L185.4 423.98L185.42 423.96L185.43 423.93L185.44 423.9L185.45 423.87L185.46 423.84L185.48 423.81L185.48 423.78L185.5 423.75L185.51 423.71L185.52 423.69L185.53 423.66L185.54 423.62L185.55 423.59L185.57 423.56L186.13 421.43L186.31 421.38L186.7 421.24L187.08 421.08L187.46 420.91L187.83 420.73L187.86 420.71L189.77 421.82L189.8 421.84L189.83 421.85L189.86 421.86L189.89 421.88L189.93 421.9L189.95 421.91L189.98 421.92L190.02 421.94L190.04 421.96L190.08 421.96L190.1 421.97L190.13 421.99L190.16 422L190.18 422.01L190.22 422.02L190.24 422.03L190.27 422.04L190.3 422.04L190.33 422.05L190.35 422.06L190.38 422.06L190.4 422.06L190.43 422.06L190.45 422.06L190.48 422.06L190.5 422.06L190.53 422.06L190.55 422.06L190.58 422.06L190.6 422.06L190.62 422.05L190.64 422.04L190.67 422.03L190.68 422.02L190.71 422.01L190.73 422L190.75 421.99L190.77 421.97L190.79 421.96L190.81 421.94L193.58 419.16L193.6 419.14L193.62 419.12L193.63 419.1L193.65 419.08L193.66 419.06L193.68 419.04L193.68 419.01L193.69 418.99L193.7 418.97L193.71 418.95L193.71 418.92L193.72 418.9L193.72 418.87L193.73 418.85L193.73 418.82L193.73 418.8L193.73 418.77L193.72 418.75L193.72 418.72L193.71 418.69L193.71 418.66L193.7 418.64L193.69 418.61L193.68 418.58L193.68 418.56L193.67 418.53L193.66 418.5L193.65 418.47L193.63 418.44L193.63 418.41L193.61 418.38L193.6 418.36L193.58 418.32L193.57 418.3L193.55 418.26L193.53 418.24L193.52 418.21L193.5 418.18L193.48 418.15L193.47 418.12L192.37 416.21L192.38 416.17L192.57 415.81L192.74 415.43L192.89 415.05L193.03 414.65L193.08 414.47L195.21 413.91L195.24 413.9L195.28 413.89L195.31 413.88L195.34 413.87L195.38 413.86L195.41 413.86L195.43 413.85L195.47 413.84L195.5 413.82L195.53 413.81L195.56 413.8L195.58 413.79L195.61 413.78L195.64 413.76L195.67 413.75L195.69 413.74L195.72 413.72L195.74 413.71L195.77 413.7L195.78 413.68L195.81 413.66L195.83 413.65L195.85 413.63L195.87 413.61L195.88 413.59L195.9 413.57L195.92 413.56L195.93 413.54L195.95 413.51L195.96 413.5L195.98 413.47L195.98 413.45L195.99 413.43L196 413.41L196.01 413.38L196.02 413.36L196.02 413.33L196.03 413.31L196.03 413.28L196.03 413.26L196.03 409.33L196.03 409.31L196.03 409.28L196.02 409.26L196.02 409.23L196.01 409.21L196 409.18L195.99 409.16L195.98 409.14L195.98 409.11L195.96 409.1L195.95 409.08L195.93 409.06L195.92 409.04L195.9 409.02L195.88 409.01L195.87 408.99L195.85 408.97L195.83 408.96L195.81 408.94L195.78 408.92L195.77 408.91L195.74 408.9L195.72 408.88L195.69 408.86L195.67 408.86L195.64 408.84L195.61 408.83L195.58 408.81L195.56 408.81L195.53 408.79L195.5 408.78L195.47 408.76L195.43 408.76L195.41 408.75L195.38 408.73L195.34 408.72L195.31 408.71L195.28 408.7L195.24 408.69L195.21 408.68L193.08 408.11L193.03 407.93L192.89 407.54L192.74 407.16L192.57 406.78L192.38 406.41L192.37 406.37L193.47 404.47L193.48 404.45L193.5 404.41L193.52 404.38L193.53 404.36L193.55 404.32L193.57 404.3L193.58 404.26L193.6 404.24L193.61 404.21L193.63 404.18L193.63 404.16L193.65 404.12L193.66 404.1L193.67 404.06L193.68 404.04L193.68 404.01L193.69 403.98L193.7 403.96L193.71 403.93L193.71 403.9L193.72 403.87L193.72 403.85L193.73 403.82L193.73 403.8L193.73 403.77L193.73 403.75L193.72 403.72L193.72 403.7L193.71 403.67L193.71 403.65L193.7 403.62L193.69 403.6L193.68 403.58L193.68 403.56L193.66 403.53L193.65 403.51L193.63 403.49L193.62 403.47L193.6 403.46L193.58 403.43L190.81 400.66L190.79 400.64L190.77 400.62L190.75 400.61L190.73 400.6L190.71 400.58L190.68 400.57L190.67 400.56L190.64 400.56L190.62 400.55L190.6 400.54L190.58 400.53L190.55 400.53L190.53 400.53L190.5 400.52L190.48 400.52L190.45 400.53L190.43 400.53L190.4 400.53L190.38 400.54L190.35 400.54L190.33 400.55L190.3 400.56L190.27 400.56L190.24 400.56L190.22 400.57L190.18 400.59L190.16 400.6L190.13 400.61L190.1 400.61L190.08 400.63L190.04 400.64L190.02 400.66L189.98 400.67L189.95 400.68L189.93 400.7L189.89 400.71L189.86 400.73L189.83 400.74L189.8 400.76L189.77 400.77L187.87 401.87L187.83 401.86L187.46 401.67L187.08 401.51L186.7 401.35L186.31 401.21L186.13 401.16L185.57 399.03L185.55 399L185.54 398.96L185.53 398.93L185.52 398.9L185.51 398.86L185.5 398.84L185.48 398.81L185.48 398.77L185.46 398.75L185.45 398.71L185.44 398.69L185.43 398.66L185.42 398.63L185.4 398.61L185.38 398.57L185.38 398.55L185.36 398.52L185.35 398.5L185.33 398.48L185.32 398.46L185.3 398.43L185.28 398.41L185.27 398.39L185.25 398.37L185.23 398.36L185.22 398.34L185.2 398.32L185.18 398.31L185.17 398.29L185.14 398.28L185.13 398.26L185.1 398.26L185.08 398.25L185.06 398.24L185.03 398.23L185.01 398.22L184.98 398.22L184.96 398.21L184.93 398.21L184.91 398.21L180.98 398.21L180.96 398.21L180.93 398.21L180.91 398.22L180.88 398.22L180.86 398.23L180.83 398.24L180.81 398.25L180.79 398.26L180.77 398.26L180.75 398.28L180.73 398.29L180.71 398.31L180.68 398.32L180.67 398.34L180.65 398.36L180.63 398.37L180.61 398.39L180.59 398.41L180.58 398.43L180.57 398.46L180.55 398.48L180.53 398.5L180.52 398.52L180.5 398.55L180.49 398.57L180.48 398.61L180.47 398.63L180.45 398.66L180.44 398.69L180.43 398.71L180.42 398.75L180.41 398.77L180.39 398.81L180.38 398.84L180.38 398.86L180.37 398.9L180.36 398.93L180.35 398.96L180.34 399L180.33 399.03L179.77 401.16L179.59 401.21L179.2 401.35L178.81 401.51L178.43 401.67L178.07 401.86L178.02 401.88L176.12 400.78L176.1 400.76L176.07 400.75L176.04 400.73L176.01 400.71L175.98 400.7L175.95 400.68L175.92 400.66L175.89 400.65L175.87 400.64L175.83 400.62L175.81 400.61L175.77 400.6L175.75 400.59L175.72 400.58L175.69 400.57L175.67 400.56L175.63 400.56L175.61 400.55L175.58 400.54L175.56 400.54L175.52 400.53L175.5 400.53L175.47 400.53L175.45 400.52L175.42 400.52L175.4 400.53L175.37 400.53L175.35 400.53L175.32 400.54L175.3 400.54L175.27 400.55L175.26 400.56L175.23 400.56L175.21 400.57L175.19 400.59L175.17 400.6L175.15 400.61L175.12 400.63L175.11 400.65L175.08 400.66L172.32 403.44L172.29 403.46L172.27 403.48L172.26 403.5L172.25 403.52L172.23 403.54L172.22 403.56L172.22 403.58L172.21 403.61L172.2 403.63L172.19 403.65L172.19 403.67L172.18 403.7L172.18 403.72L172.18 403.75L172.18 403.77L172.18 403.8L172.18 403.82L172.18 403.85L172.19 403.87L172.19 403.9L172.2 403.92L172.21 403.95L172.22 403.98L172.22 404.01L172.23 404.03L172.24 404.06L172.25 404.09L172.26 404.11L172.27 404.15L172.28 404.17L172.3 404.21L172.31 404.23L172.32 404.26L172.33 404.3L172.35 404.32L172.37 404.36L172.38 404.39L172.4 404.41L172.42 404.45L172.42 404.48L173.52 406.37L173.51 406.41L173.32 406.78L173.16 407.16L173 407.54L172.87 407.93L172.81 408.11L170.68 408.68L170.65 408.69L170.62 408.7L170.58 408.71L170.56 408.72L170.52 408.73L170.49 408.75L170.46 408.76L170.42 408.76L170.4 408.78L170.37 408.79L170.34 408.81L170.31 408.81L170.28 408.83L170.26 408.84L170.23 408.86L170.21 408.86L170.18 408.88L170.16 408.9L170.13 408.91L170.11 408.92L170.09 408.94L170.07 408.96L170.05 408.97L170.02 408.99L170.01 409.01L169.99 409.02L169.97 409.04L169.96 409.06L169.95 409.08L169.93 409.1L169.92 409.11L169.91 409.14L169.9 409.16L169.89 409.18L169.88 409.21L169.88 409.23L169.87 409.26L169.87 409.28L169.87 409.31L169.87 409.33L169.87 413.26L169.87 413.28L169.87 413.31L169.87 413.33L169.88 413.36L169.88 413.38L169.89 413.41L169.9 413.43L169.91 413.45L169.92 413.47L169.93 413.5L169.95 413.51L169.96 413.54L169.97 413.56L169.99 413.57L170.01 413.59L170.02 413.61L170.05 413.63L170.07 413.65L170.09 413.66L170.11 413.68L170.13 413.7L170.16 413.71L170.18 413.72L170.21 413.74L170.23 413.75L170.26 413.76L170.28 413.78L170.31 413.79L170.34 413.8L170.37 413.81L170.4 413.82L170.42 413.84L170.46 413.85L170.49 413.86L170.52 413.86L170.56 413.87L170.58 413.88L170.62 413.89L170.65 413.9L170.68 413.91L172.81 414.47L172.87 414.65L173 415.05L173.16 415.43L173.32 415.81L173.51 416.17L173.52 416.21L172.42 418.11L172.42 418.15L172.4 418.17L172.38 418.21L172.37 418.24L172.35 418.27L172.33 418.3L172.32 418.33L172.31 418.36L172.3 418.39L172.28 418.41L172.27 418.45L172.26 418.47L172.25 418.51L172.24 418.53L172.23 418.56L172.22 418.59L172.22 418.61L172.21 418.64L172.2 418.67L172.19 418.7L172.19 418.72L172.18 418.75L172.18 418.77L172.18 418.8L172.18 418.82L172.18 418.85L172.18 418.87L172.18 418.9L172.19 418.92L172.19 418.94L172.2 418.96L172.21 418.99L172.22 419.01L172.22 419.03L172.23 419.06L172.25 419.07L172.26 419.1L172.27 419.11L172.29 419.13L172.32 419.16L175.08 421.93L175.11 421.95L175.12 421.96L175.15 421.98L175.17 421.99L175.19 422.01L175.21 422.01L175.23 422.03L175.26 422.04L175.27 422.05L175.3 422.06L175.32 422.06L175.35 422.06L175.37 422.06L175.4 422.06L175.42 422.06L175.45 422.06L175.47 422.06L175.5 422.06L175.52 422.06L175.56 422.06L175.58 422.06L175.61 422.05L175.63 422.04L175.67 422.03L175.69 422.02L175.72 422.01L175.75 422.01L175.77 421.99L175.81 421.98L175.83 421.97L175.87 421.96L175.89 421.94L175.92 421.93L175.95 421.91L175.98 421.9L176.01 421.88L176.04 421.86L176.07 421.85L176.1 421.83L176.12 421.81L178.02 420.71L178.07 420.73L178.43 420.91L178.81 421.08L179.2 421.24L179.59 421.38L179.77 421.43L180.33 423.56L180.34 423.59L180.35 423.62L180.36 423.66L180.37 423.69L180.38 423.71L180.38 423.75L180.39 423.78L180.41 423.81L180.42 423.84L180.43 423.87L180.44 423.9L180.45 423.93L180.47 423.96L180.48 423.98L180.49 424.01L180.5 424.04L180.52 424.06L180.53 424.09L180.55 424.11L180.57 424.13L180.58 424.16L180.59 424.17L180.61 424.2L180.63 424.21L180.65 424.23L180.67 424.25L180.68 424.26L180.71 424.28L180.73 424.3L180.75 424.31L180.77 424.32L180.79 424.33L180.81 424.34L180.83 424.35L180.86 424.36L180.88 424.36L180.91 424.36L180.93 424.36L180.96 424.37L180.98 424.37L184.91 424.37L184.93 424.37L184.96 424.36L184.98 424.36ZM182.25 416.97L182.02 416.94L181.79 416.9L181.58 416.85L181.35 416.79L181.14 416.72L180.93 416.65L180.72 416.56L180.52 416.47L180.32 416.37L180.13 416.27L179.93 416.16L179.75 416.04L179.57 415.91L179.39 415.78L179.22 415.64L179.06 415.49L178.9 415.34L178.75 415.18L178.6 415.01L178.47 414.85L178.33 414.67L178.2 414.49L178.08 414.31L177.97 414.11L177.87 413.92L177.77 413.72L177.67 413.52L177.59 413.31L177.52 413.1L177.45 412.89L177.39 412.66L177.34 412.45L177.3 412.22L177.27 411.99L177.24 411.76L177.23 411.53L177.22 411.29L177.23 411.06L177.24 410.82L177.27 410.59L177.3 410.36L177.34 410.14L177.39 409.91L177.45 409.7L177.52 409.48L177.59 409.27L177.67 409.06L177.77 408.86L177.87 408.66L177.97 408.47L178.08 408.28L178.2 408.1L178.33 407.91L178.47 407.74L178.6 407.57L178.75 407.41L178.9 407.25L179.06 407.1L179.22 406.95L179.39 406.81L179.57 406.67L179.75 406.55L179.93 406.43L180.13 406.31L180.32 406.21L180.52 406.11L180.72 406.02L180.93 405.94L181.14 405.86L181.35 405.8L181.58 405.74L181.79 405.69L182.02 405.65L182.25 405.61L182.48 405.59L182.71 405.57L182.95 405.57L183.18 405.57L183.42 405.59L183.65 405.61L183.88 405.65L184.1 405.69L184.33 405.74L184.54 405.8L184.76 405.86L184.97 405.94L185.18 406.02L185.38 406.11L185.58 406.21L185.78 406.31L185.96 406.43L186.15 406.55L186.33 406.67L186.5 406.81L186.68 406.95L186.83 407.1L186.99 407.25L187.14 407.41L187.29 407.57L187.43 407.74L187.57 407.91L187.69 408.1L187.81 408.28L187.93 408.47L188.03 408.66L188.13 408.86L188.22 409.06L188.3 409.27L188.38 409.48L188.44 409.7L188.5 409.91L188.55 410.14L188.59 410.36L188.63 410.59L188.65 410.82L188.67 411.06L188.67 411.29L188.67 411.53L188.65 411.76L188.63 411.99L188.59 412.22L188.55 412.45L188.5 412.66L188.44 412.89L188.38 413.1L188.3 413.31L188.22 413.52L188.13 413.72L188.03 413.92L187.93 414.11L187.81 414.31L187.69 414.49L187.57 414.67L187.43 414.85L187.29 415.01L187.14 415.18L186.99 415.34L186.83 415.49L186.68 415.64L186.5 415.78L186.33 415.91L186.15 416.04L185.96 416.16L185.78 416.27L185.58 416.37L185.38 416.47L185.18 416.56L184.97 416.65L184.76 416.72L184.54 416.79L184.33 416.85L184.1 416.9L183.88 416.94L183.65 416.97L183.42 417L183.18 417.01L182.95 417.01L182.71 417.01L182.48 417L182.25 416.97Z" id="eTvXht8h7"></path></defs><g><g><use xlink:href="#b1jV6zlcU2" opacity="1" fill="#ffbb0b" fill-opacity="1"></use><g><use xlink:href="#b1jV6zlcU2" opacity="1" fill-opacity="0" stroke="#000000" stroke-width="1" stroke-opacity="0"></use></g></g><g><use xlink:href="#a40BRfCEA9" opacity="1" fill="#000000" fill-opacity="1"></use><g><use xlink:href="#a40BRfCEA9" opacity="1" fill-opacity="0" stroke="#000000" stroke-width="1" stroke-opacity="0"></use></g></g><g><use xlink:href="#nsBZg3HQE" opacity="1" fill="#ffbb0b" fill-opacity="1"></use><g><use xlink:href="#nsBZg3HQE" opacity="1" fill-opacity="0" stroke="#000000" stroke-width="1" stroke-opacity="0"></use></g></g><g><use xlink:href="#a3F6Z7p9Mn" opacity="1" fill="#ffb800" fill-opacity="1"></use><g><use xlink:href="#a3F6Z7p9Mn" opacity="1" fill-opacity="0" stroke="#000000" stroke-width="1" stroke-opacity="0"></use></g></g><g><use xlink:href="#duQstXumK" opacity="1" fill="#ffbb0b" fill-opacity="1"></use><g><use xlink:href="#duQstXumK" opacity="1" fill-opacity="0" stroke="#000000" stroke-width="1" stroke-opacity="0"></use></g></g><g><use xlink:href="#kFfgvaGnJ" opacity="1" fill="#ffb700" fill-opacity="1"></use><g><use xlink:href="#kFfgvaGnJ" opacity="1" fill-opacity="0" stroke="#000000" stroke-width="1" stroke-opacity="0"></use></g></g><g><use xlink:href="#bvEUSRJzP" opacity="1" fill="#ffb600" fill-opacity="1"></use><g><use xlink:href="#bvEUSRJzP" opacity="1" fill-opacity="0" stroke="#000000" stroke-width="1" stroke-opacity="0"></use></g></g><g><use xlink:href="#a8vNv9Qwu" opacity="1" fill="#000000" fill-opacity="1"></use><g><use xlink:href="#a8vNv9Qwu" opacity="1" fill-opacity="0" stroke="#000000" stroke-width="1" stroke-opacity="0"></use></g></g><g><use xlink:href="#f25RKEUgt8" opacity="1" fill="#000000" fill-opacity="1"></use><g><use xlink:href="#f25RKEUgt8" opacity="1" fill-opacity="0" stroke="#000000" stroke-width="1" stroke-opacity="0"></use></g></g><g><use xlink:href="#a14610dQWk" opacity="1" fill="#ffbb0b" fill-opacity="1"></use><g><use xlink:href="#a14610dQWk" opacity="1" fill-opacity="0" stroke="#000000" stroke-width="1" stroke-opacity="0"></use></g></g><g><use xlink:href="#b178ufLmBe" opacity="1" fill="#ffbb0b" fill-opacity="1"></use><g><use xlink:href="#b178ufLmBe" opacity="1" fill-opacity="0" stroke="#000000" stroke-width="1" stroke-opacity="0"></use></g></g><g><use xlink:href="#a3oJ6rpGI3" opacity="1" fill="#ffb800" fill-opacity="1"></use><g><use xlink:href="#a3oJ6rpGI3" opacity="1" fill-opacity="0" stroke="#000000" stroke-width="1" stroke-opacity="0"></use></g></g><g><use xlink:href="#b3FDYHdONE" opacity="1" fill="#ffb800" fill-opacity="1"></use><g><use xlink:href="#b3FDYHdONE" opacity="1" fill-opacity="0" stroke="#000000" stroke-width="1" stroke-opacity="0"></use></g></g><g><use xlink:href="#aXNJqEhqn" opacity="1" fill="#000000" fill-opacity="1"></use><g><use xlink:href="#aXNJqEhqn" opacity="1" fill-opacity="0" stroke="#000000" stroke-width="1" stroke-opacity="0"></use></g></g><g><use xlink:href="#b43IGTIeba" opacity="1" fill="#000000" fill-opacity="1"></use><g><use xlink:href="#b43IGTIeba" opacity="1" fill-opacity="0" stroke="#000000" stroke-width="1" stroke-opacity="0"></use></g></g><g><use xlink:href="#eTvXht8h7" opacity="1" fill="#000000" fill-opacity="1"></use><g><use xlink:href="#eTvXht8h7" opacity="1" fill-opacity="0" stroke="#000000" stroke-width="1" stroke-opacity="0"></use></g></g></g></svg>