<?xml version="1.0" encoding="UTF-8" standalone="no"?>
<!DOCTYPE svg PUBLIC "-//W3C//DTD SVG 1.1//EN" "http://www.w3.org/Graphics/SVG/1.1/DTD/svg11.dtd">
<svg version="1.1" xmlns="http://www.w3.org/2000/svg" xmlns:xlink="http://www.w3.org/1999/xlink" preserveAspectRatio="xMidYMid meet" viewBox="210.42230804418728 52.21167883211706 203.99999999999966 203.99999999999977" width="200" height="200"><defs><path d="M211.42 153.21C211.42 98.02 256.23 53.21 311.42 53.21C366.61 53.21 411.42 98.02 411.42 153.21C411.42 208.4 366.61 253.21 311.42 253.21C256.23 253.21 211.42 208.4 211.42 153.21Z" id="g1pSlsbfO6"></path><path d="M261.04 113L361.81 113L361.81 175.42L261.04 175.42L261.04 113Z" id="a2bD1He6nc"></path><path d="M380.5 184.01L380.46 184.43L380.4 184.83L380.33 185.24L380.24 185.64L380.13 186.03L380.01 186.41L379.88 186.79L379.73 187.16L379.57 187.53L379.39 187.88L379.2 188.23L379 188.57L378.78 188.91L378.56 189.23L378.32 189.54L378.07 189.85L377.81 190.14L377.53 190.42L377.25 190.7L376.95 190.96L376.65 191.21L376.34 191.45L376.01 191.68L375.68 191.89L375.34 192.09L374.99 192.28L374.64 192.46L374.27 192.62L373.9 192.77L373.52 192.9L373.14 193.02L372.75 193.13L372.35 193.22L371.94 193.29L371.54 193.35L371.12 193.39L370.7 193.42L370.28 193.43L252.56 193.43L252.14 193.42L251.72 193.39L251.31 193.35L250.9 193.29L250.5 193.22L250.1 193.13L249.71 193.02L249.32 192.9L248.94 192.77L248.57 192.62L248.21 192.46L247.85 192.28L247.5 192.09L247.16 191.89L246.83 191.68L246.51 191.45L246.19 191.21L245.89 190.96L245.6 190.7L245.31 190.42L245.04 190.14L244.78 189.85L244.53 189.54L244.29 189.23L244.06 188.91L243.85 188.57L243.64 188.23L243.45 187.88L243.28 187.53L243.11 187.16L242.97 186.79L242.83 186.41L242.71 186.03L242.61 185.64L242.52 185.24L242.44 184.83L242.38 184.43L242.34 184.01L242.32 183.59L242.31 183.17L299.22 183.17L299.22 185.92L299.23 186.15L299.26 186.37L299.32 186.59L299.39 186.8L299.48 186.99L299.58 187.18L299.71 187.36L299.84 187.52L300 187.68L300.16 187.81L300.34 187.94L300.53 188.04L300.73 188.13L300.93 188.2L301.15 188.26L301.37 188.29L301.6 188.3L322.7 188.3L322.93 188.29L323.16 188.26L323.37 188.2L323.58 188.13L323.78 188.04L323.97 187.94L324.14 187.81L324.31 187.68L324.46 187.52L324.6 187.36L324.72 187.18L324.83 186.99L324.92 186.8L324.99 186.59L325.04 186.37L325.07 186.15L325.08 185.92L325.08 183.17L380.54 183.17L380.53 183.59L380.5 184.01Z" id="b4kw5OQud"></path><path d="M299.68 132.54C300.38 133.24 300.38 134.37 299.68 135.07C295.27 139.48 283.28 151.46 278.87 155.87C278.17 156.57 277.04 156.57 276.35 155.87C276.1 155.62 276.6 156.13 276.35 155.87C275.65 155.18 275.65 154.05 276.35 153.35C280.76 148.94 292.74 136.96 297.16 132.54C297.85 131.85 298.98 131.85 299.68 132.54C299.93 132.8 299.43 132.29 299.68 132.54Z" id="fO3MJSRV"></path><path d="M315.46 132.54C316.16 133.24 316.16 134.37 315.46 135.07C311.05 139.48 299.07 151.46 294.66 155.87C293.96 156.57 292.83 156.57 292.13 155.87C291.88 155.62 292.39 156.13 292.13 155.87C291.44 155.18 291.44 154.05 292.13 153.35C296.55 148.94 308.53 136.96 312.94 132.54C313.64 131.85 314.77 131.85 315.46 132.54C315.72 132.8 315.21 132.29 315.46 132.54Z" id="d21M8mRCmK"></path></defs><g><g><use xlink:href="#g1pSlsbfO6" opacity="1" fill="#ffbb0b" fill-opacity="1"></use></g><g><g><use xlink:href="#a2bD1He6nc" opacity="1" fill-opacity="0" stroke="#000000" stroke-width="6" stroke-opacity="1"></use></g></g><g><use xlink:href="#b4kw5OQud" opacity="1" fill="#121211" fill-opacity="1"></use></g><g><use xlink:href="#fO3MJSRV" opacity="1" fill="#000000" fill-opacity="1"></use></g><g><use xlink:href="#d21M8mRCmK" opacity="1" fill="#000000" fill-opacity="1"></use></g></g></svg>